solid environment
 facet normal 0.000000 0.000000 1.000000
  outer loop
   vertex 0.000000 0.000000 0.000000
   vertex 300.000000 0.000000 0.000000
   vertex 300.000000 300.000000 0.000000
  endloop
 endfacet
 facet normal 0.000000 0.000000 1.000000
  outer loop
   vertex 0.000000 0.000000 0.000000
   vertex 300.000000 300.000000 0.000000
   vertex 0.000000 300.000000 0.000000
  endloop
 endfacet
 facet normal 0.000000 0.000000 1.000000
  outer loop
   vertex 0.000000 0.000000 0.100000
   vertex 300.000000 0.000000 0.100000
   vertex 300.000000 300.000000 0.100000
  endloop
 endfacet
 facet normal 0.000000 0.000000 1.000000
  outer loop
   vertex 0.000000 0.000000 0.100000
   vertex 300.000000 300.000000 0.100000
   vertex 0.000000 300.000000 0.100000
  endloop
 endfacet
 facet normal 0.000000 -1.000000 0.000000
  outer loop
   vertex 0.000000 0.000000 0.000000
   vertex 300.000000 0.000000 0.000000
   vertex 300.000000 0.000000 0.100000
  endloop
 endfacet
 facet normal 0.000000 -1.000000 0.000000
  outer loop
   vertex 0.000000 0.000000 0.000000
   vertex 300.000000 0.000000 0.100000
   vertex 0.000000 0.000000 0.100000
  endloop
 endfacet
 facet normal 1.000000 0.000000 0.000000
  outer loop
   vertex 300.000000 0.000000 0.000000
   vertex 300.000000 300.000000 0.000000
   vertex 300.000000 300.000000 0.100000
  endloop
 endfacet
 facet normal 1.000000 0.000000 0.000000
  outer loop
   vertex 300.000000 0.000000 0.000000
   vertex 300.000000 300.000000 0.100000
   vertex 300.000000 0.000000 0.100000
  endloop
 endfacet
 facet normal 0.000000 1.000000 0.000000
  outer loop
   vertex 300.000000 300.000000 0.000000
   vertex 0.000000 300.000000 0.000000
   vertex 0.000000 300.000000 0.100000
  endloop
 endfacet
 facet normal 0.000000 1.000000 -0.000000
  outer loop
   vertex 300.000000 300.000000 0.000000
   vertex 0.000000 300.000000 0.100000
   vertex 300.000000 300.000000 0.100000
  endloop
 endfacet
 facet normal -1.000000 0.000000 0.000000
  outer loop
   vertex 0.000000 300.000000 0.000000
   vertex 0.000000 0.000000 0.000000
   vertex 0.000000 0.000000 0.100000
  endloop
 endfacet
 facet normal -1.000000 0.000000 0.000000
  outer loop
   vertex 0.000000 300.000000 0.000000
   vertex 0.000000 0.000000 0.100000
   vertex 0.000000 300.000000 0.100000
  endloop
 endfacet
 facet normal 0.000000 0.000000 1.000000
  outer loop
   vertex 45.000000 60.000000 0.000000
   vertex 135.000000 60.000000 0.000000
   vertex 135.000000 105.000000 0.000000
  endloop
 endfacet
 facet normal 0.000000 0.000000 1.000000
  outer loop
   vertex 45.000000 60.000000 0.000000
   vertex 135.000000 105.000000 0.000000
   vertex 45.000000 105.000000 0.000000
  endloop
 endfacet
 facet normal 0.000000 0.000000 1.000000
  outer loop
   vertex 45.000000 60.000000 2.000000
   vertex 135.000000 60.000000 2.000000
   vertex 135.000000 105.000000 2.000000
  endloop
 endfacet
 facet normal 0.000000 0.000000 1.000000
  outer loop
   vertex 45.000000 60.000000 2.000000
   vertex 135.000000 105.000000 2.000000
   vertex 45.000000 105.000000 2.000000
  endloop
 endfacet
 facet normal 0.000000 -1.000000 0.000000
  outer loop
   vertex 45.000000 60.000000 0.000000
   vertex 135.000000 60.000000 0.000000
   vertex 135.000000 60.000000 2.000000
  endloop
 endfacet
 facet normal 0.000000 -1.000000 0.000000
  outer loop
   vertex 45.000000 60.000000 0.000000
   vertex 135.000000 60.000000 2.000000
   vertex 45.000000 60.000000 2.000000
  endloop
 endfacet
 facet normal 1.000000 0.000000 0.000000
  outer loop
   vertex 135.000000 60.000000 0.000000
   vertex 135.000000 105.000000 0.000000
   vertex 135.000000 105.000000 2.000000
  endloop
 endfacet
 facet normal 1.000000 0.000000 0.000000
  outer loop
   vertex 135.000000 60.000000 0.000000
   vertex 135.000000 105.000000 2.000000
   vertex 135.000000 60.000000 2.000000
  endloop
 endfacet
 facet normal 0.000000 1.000000 0.000000
  outer loop
   vertex 135.000000 105.000000 0.000000
   vertex 45.000000 105.000000 0.000000
   vertex 45.000000 105.000000 2.000000
  endloop
 endfacet
 facet normal 0.000000 1.000000 -0.000000
  outer loop
   vertex 135.000000 105.000000 0.000000
   vertex 45.000000 105.000000 2.000000
   vertex 135.000000 105.000000 2.000000
  endloop
 endfacet
 facet normal -1.000000 0.000000 0.000000
  outer loop
   vertex 45.000000 105.000000 0.000000
   vertex 45.000000 60.000000 0.000000
   vertex 45.000000 60.000000 2.000000
  endloop
 endfacet
 facet normal -1.000000 0.000000 0.000000
  outer loop
   vertex 45.000000 105.000000 0.000000
   vertex 45.000000 60.000000 2.000000
   vertex 45.000000 105.000000 2.000000
  endloop
 endfacet
 facet normal 0.000000 0.000000 1.000000
  outer loop
   vertex 90.000000 165.000000 0.000000
   vertex 165.000000 165.000000 0.000000
   vertex 165.000000 225.000000 0.000000
  endloop
 endfacet
 facet normal 0.000000 0.000000 1.000000
  outer loop
   vertex 90.000000 165.000000 0.000000
   vertex 165.000000 225.000000 0.000000
   vertex 90.000000 225.000000 0.000000
  endloop
 endfacet
 facet normal 0.000000 0.000000 1.000000
  outer loop
   vertex 90.000000 165.000000 2.000000
   vertex 165.000000 165.000000 2.000000
   vertex 165.000000 225.000000 2.000000
  endloop
 endfacet
 facet normal 0.000000 0.000000 1.000000
  outer loop
   vertex 90.000000 165.000000 2.000000
   vertex 165.000000 225.000000 2.000000
   vertex 90.000000 225.000000 2.000000
  endloop
 endfacet
 facet normal 0.000000 -1.000000 0.000000
  outer loop
   vertex 90.000000 165.000000 0.000000
   vertex 165.000000 165.000000 0.000000
   vertex 165.000000 165.000000 2.000000
  endloop
 endfacet
 facet normal 0.000000 -1.000000 0.000000
  outer loop
   vertex 90.000000 165.000000 0.000000
   vertex 165.000000 165.000000 2.000000
   vertex 90.000000 165.000000 2.000000
  endloop
 endfacet
 facet normal 1.000000 0.000000 0.000000
  outer loop
   vertex 165.000000 165.000000 0.000000
   vertex 165.000000 225.000000 0.000000
   vertex 165.000000 225.000000 2.000000
  endloop
 endfacet
 facet normal 1.000000 0.000000 0.000000
  outer loop
   vertex 165.000000 165.000000 0.000000
   vertex 165.000000 225.000000 2.000000
   vertex 165.000000 165.000000 2.000000
  endloop
 endfacet
 facet normal 0.000000 1.000000 0.000000
  outer loop
   vertex 165.000000 225.000000 0.000000
   vertex 90.000000 225.000000 0.000000
   vertex 90.000000 225.000000 2.000000
  endloop
 endfacet
 facet normal 0.000000 1.000000 -0.000000
  outer loop
   vertex 165.000000 225.000000 0.000000
   vertex 90.000000 225.000000 2.000000
   vertex 165.000000 225.000000 2.000000
  endloop
 endfacet
 facet normal -1.000000 0.000000 0.000000
  outer loop
   vertex 90.000000 225.000000 0.000000
   vertex 90.000000 165.000000 0.000000
   vertex 90.000000 165.000000 2.000000
  endloop
 endfacet
 facet normal -1.000000 0.000000 0.000000
  outer loop
   vertex 90.000000 225.000000 0.000000
   vertex 90.000000 165.000000 2.000000
   vertex 90.000000 225.000000 2.000000
  endloop
 endfacet
 facet normal 0.000000 0.000000 1.000000
  outer loop
   vertex 195.000000 60.000000 0.000000
   vertex 255.000000 60.000000 0.000000
   vertex 255.000000 120.000000 0.000000
  endloop
 endfacet
 facet normal 0.000000 0.000000 1.000000
  outer loop
   vertex 195.000000 60.000000 0.000000
   vertex 255.000000 120.000000 0.000000
   vertex 195.000000 120.000000 0.000000
  endloop
 endfacet
 facet normal 0.000000 0.000000 1.000000
  outer loop
   vertex 195.000000 60.000000 2.000000
   vertex 255.000000 60.000000 2.000000
   vertex 255.000000 120.000000 2.000000
  endloop
 endfacet
 facet normal 0.000000 0.000000 1.000000
  outer loop
   vertex 195.000000 60.000000 2.000000
   vertex 255.000000 120.000000 2.000000
   vertex 195.000000 120.000000 2.000000
  endloop
 endfacet
 facet normal 0.000000 -1.000000 0.000000
  outer loop
   vertex 195.000000 60.000000 0.000000
   vertex 255.000000 60.000000 0.000000
   vertex 255.000000 60.000000 2.000000
  endloop
 endfacet
 facet normal 0.000000 -1.000000 0.000000
  outer loop
   vertex 195.000000 60.000000 0.000000
   vertex 255.000000 60.000000 2.000000
   vertex 195.000000 60.000000 2.000000
  endloop
 endfacet
 facet normal 1.000000 0.000000 0.000000
  outer loop
   vertex 255.000000 60.000000 0.000000
   vertex 255.000000 120.000000 0.000000
   vertex 255.000000 120.000000 2.000000
  endloop
 endfacet
 facet normal 1.000000 0.000000 0.000000
  outer loop
   vertex 255.000000 60.000000 0.000000
   vertex 255.000000 120.000000 2.000000
   vertex 255.000000 60.000000 2.000000
  endloop
 endfacet
 facet normal 0.000000 1.000000 0.000000
  outer loop
   vertex 255.000000 120.000000 0.000000
   vertex 195.000000 120.000000 0.000000
   vertex 195.000000 120.000000 2.000000
  endloop
 endfacet
 facet normal 0.000000 1.000000 -0.000000
  outer loop
   vertex 255.000000 120.000000 0.000000
   vertex 195.000000 120.000000 2.000000
   vertex 255.000000 120.000000 2.000000
  endloop
 endfacet
 facet normal -1.000000 0.000000 0.000000
  outer loop
   vertex 195.000000 120.000000 0.000000
   vertex 195.000000 60.000000 0.000000
   vertex 195.000000 60.000000 2.000000
  endloop
 endfacet
 facet normal -1.000000 0.000000 0.000000
  outer loop
   vertex 195.000000 120.000000 0.000000
   vertex 195.000000 60.000000 2.000000
   vertex 195.000000 120.000000 2.000000
  endloop
 endfacet
 facet normal 0.996917 0.078459 0.000000
  outer loop
   vertex 126.000000 225.000000 0.000000
   vertex 125.556780 230.631641 0.000000
   vertex 125.556780 230.631641 2.000000
  endloop
 endfacet
 facet normal 0.996917 0.078459 -0.000000
  outer loop
   vertex 126.000000 225.000000 0.000000
   vertex 125.556780 230.631641 2.000000
   vertex 126.000000 225.000000 2.000000
  endloop
 endfacet
 facet normal 0.972370 0.233445 0.000000
  outer loop
   vertex 125.556780 230.631641 0.000000
   vertex 124.238035 236.124612 0.000000
   vertex 124.238035 236.124612 2.000000
  endloop
 endfacet
 facet normal 0.972370 0.233445 -0.000000
  outer loop
   vertex 125.556780 230.631641 0.000000
   vertex 124.238035 236.124612 2.000000
   vertex 125.556780 230.631641 2.000000
  endloop
 endfacet
 facet normal 0.923880 0.382683 0.000000
  outer loop
   vertex 124.238035 236.124612 0.000000
   vertex 122.076235 241.343658 0.000000
   vertex 122.076235 241.343658 2.000000
  endloop
 endfacet
 facet normal 0.923880 0.382683 -0.000000
  outer loop
   vertex 124.238035 236.124612 0.000000
   vertex 122.076235 241.343658 2.000000
   vertex 124.238035 236.124612 2.000000
  endloop
 endfacet
 facet normal 0.852640 0.522499 0.000000
  outer loop
   vertex 122.076235 241.343658 0.000000
   vertex 119.124612 246.160269 0.000000
   vertex 119.124612 246.160269 2.000000
  endloop
 endfacet
 facet normal 0.852640 0.522499 -0.000000
  outer loop
   vertex 122.076235 241.343658 0.000000
   vertex 119.124612 246.160269 2.000000
   vertex 122.076235 241.343658 2.000000
  endloop
 endfacet
 facet normal 0.760406 0.649448 0.000000
  outer loop
   vertex 119.124612 246.160269 0.000000
   vertex 115.455844 250.455844 0.000000
   vertex 115.455844 250.455844 2.000000
  endloop
 endfacet
 facet normal 0.760406 0.649448 -0.000000
  outer loop
   vertex 119.124612 246.160269 0.000000
   vertex 115.455844 250.455844 2.000000
   vertex 119.124612 246.160269 2.000000
  endloop
 endfacet
 facet normal 0.649448 0.760406 0.000000
  outer loop
   vertex 115.455844 250.455844 0.000000
   vertex 111.160269 254.124612 0.000000
   vertex 111.160269 254.124612 2.000000
  endloop
 endfacet
 facet normal 0.649448 0.760406 -0.000000
  outer loop
   vertex 115.455844 250.455844 0.000000
   vertex 111.160269 254.124612 2.000000
   vertex 115.455844 250.455844 2.000000
  endloop
 endfacet
 facet normal 0.522499 0.852640 0.000000
  outer loop
   vertex 111.160269 254.124612 0.000000
   vertex 106.343658 257.076235 0.000000
   vertex 106.343658 257.076235 2.000000
  endloop
 endfacet
 facet normal 0.522499 0.852640 -0.000000
  outer loop
   vertex 111.160269 254.124612 0.000000
   vertex 106.343658 257.076235 2.000000
   vertex 111.160269 254.124612 2.000000
  endloop
 endfacet
 facet normal 0.382683 0.923880 0.000000
  outer loop
   vertex 106.343658 257.076235 0.000000
   vertex 101.124612 259.238035 0.000000
   vertex 101.124612 259.238035 2.000000
  endloop
 endfacet
 facet normal 0.382683 0.923880 -0.000000
  outer loop
   vertex 106.343658 257.076235 0.000000
   vertex 101.124612 259.238035 2.000000
   vertex 106.343658 257.076235 2.000000
  endloop
 endfacet
 facet normal 0.233445 0.972370 0.000000
  outer loop
   vertex 101.124612 259.238035 0.000000
   vertex 95.631641 260.556780 0.000000
   vertex 95.631641 260.556780 2.000000
  endloop
 endfacet
 facet normal 0.233445 0.972370 -0.000000
  outer loop
   vertex 101.124612 259.238035 0.000000
   vertex 95.631641 260.556780 2.000000
   vertex 101.124612 259.238035 2.000000
  endloop
 endfacet
 facet normal 0.078459 0.996917 0.000000
  outer loop
   vertex 95.631641 260.556780 0.000000
   vertex 90.000000 261.000000 0.000000
   vertex 90.000000 261.000000 2.000000
  endloop
 endfacet
 facet normal 0.078459 0.996917 -0.000000
  outer loop
   vertex 95.631641 260.556780 0.000000
   vertex 90.000000 261.000000 2.000000
   vertex 95.631641 260.556780 2.000000
  endloop
 endfacet
 facet normal -0.078459 0.996917 0.000000
  outer loop
   vertex 90.000000 261.000000 0.000000
   vertex 84.368359 260.556780 0.000000
   vertex 84.368359 260.556780 2.000000
  endloop
 endfacet
 facet normal -0.078459 0.996917 0.000000
  outer loop
   vertex 90.000000 261.000000 0.000000
   vertex 84.368359 260.556780 2.000000
   vertex 90.000000 261.000000 2.000000
  endloop
 endfacet
 facet normal -0.233445 0.972370 0.000000
  outer loop
   vertex 84.368359 260.556780 0.000000
   vertex 78.875388 259.238035 0.000000
   vertex 78.875388 259.238035 2.000000
  endloop
 endfacet
 facet normal -0.233445 0.972370 0.000000
  outer loop
   vertex 84.368359 260.556780 0.000000
   vertex 78.875388 259.238035 2.000000
   vertex 84.368359 260.556780 2.000000
  endloop
 endfacet
 facet normal -0.382683 0.923880 0.000000
  outer loop
   vertex 78.875388 259.238035 0.000000
   vertex 73.656342 257.076235 0.000000
   vertex 73.656342 257.076235 2.000000
  endloop
 endfacet
 facet normal -0.382683 0.923880 0.000000
  outer loop
   vertex 78.875388 259.238035 0.000000
   vertex 73.656342 257.076235 2.000000
   vertex 78.875388 259.238035 2.000000
  endloop
 endfacet
 facet normal -0.522499 0.852640 0.000000
  outer loop
   vertex 73.656342 257.076235 0.000000
   vertex 68.839731 254.124612 0.000000
   vertex 68.839731 254.124612 2.000000
  endloop
 endfacet
 facet normal -0.522499 0.852640 0.000000
  outer loop
   vertex 73.656342 257.076235 0.000000
   vertex 68.839731 254.124612 2.000000
   vertex 73.656342 257.076235 2.000000
  endloop
 endfacet
 facet normal -0.649448 0.760406 0.000000
  outer loop
   vertex 68.839731 254.124612 0.000000
   vertex 64.544156 250.455844 0.000000
   vertex 64.544156 250.455844 2.000000
  endloop
 endfacet
 facet normal -0.649448 0.760406 0.000000
  outer loop
   vertex 68.839731 254.124612 0.000000
   vertex 64.544156 250.455844 2.000000
   vertex 68.839731 254.124612 2.000000
  endloop
 endfacet
 facet normal -0.760406 0.649448 0.000000
  outer loop
   vertex 64.544156 250.455844 0.000000
   vertex 60.875388 246.160269 0.000000
   vertex 60.875388 246.160269 2.000000
  endloop
 endfacet
 facet normal -0.760406 0.649448 0.000000
  outer loop
   vertex 64.544156 250.455844 0.000000
   vertex 60.875388 246.160269 2.000000
   vertex 64.544156 250.455844 2.000000
  endloop
 endfacet
 facet normal -0.852640 0.522499 0.000000
  outer loop
   vertex 60.875388 246.160269 0.000000
   vertex 57.923765 241.343658 0.000000
   vertex 57.923765 241.343658 2.000000
  endloop
 endfacet
 facet normal -0.852640 0.522499 0.000000
  outer loop
   vertex 60.875388 246.160269 0.000000
   vertex 57.923765 241.343658 2.000000
   vertex 60.875388 246.160269 2.000000
  endloop
 endfacet
 facet normal -0.923880 0.382683 0.000000
  outer loop
   vertex 57.923765 241.343658 0.000000
   vertex 55.761965 236.124612 0.000000
   vertex 55.761965 236.124612 2.000000
  endloop
 endfacet
 facet normal -0.923880 0.382683 0.000000
  outer loop
   vertex 57.923765 241.343658 0.000000
   vertex 55.761965 236.124612 2.000000
   vertex 57.923765 241.343658 2.000000
  endloop
 endfacet
 facet normal -0.972370 0.233445 0.000000
  outer loop
   vertex 55.761965 236.124612 0.000000
   vertex 54.443220 230.631641 0.000000
   vertex 54.443220 230.631641 2.000000
  endloop
 endfacet
 facet normal -0.972370 0.233445 0.000000
  outer loop
   vertex 55.761965 236.124612 0.000000
   vertex 54.443220 230.631641 2.000000
   vertex 55.761965 236.124612 2.000000
  endloop
 endfacet
 facet normal -0.996917 0.078459 0.000000
  outer loop
   vertex 54.443220 230.631641 0.000000
   vertex 54.000000 225.000000 0.000000
   vertex 54.000000 225.000000 2.000000
  endloop
 endfacet
 facet normal -0.996917 0.078459 0.000000
  outer loop
   vertex 54.443220 230.631641 0.000000
   vertex 54.000000 225.000000 2.000000
   vertex 54.443220 230.631641 2.000000
  endloop
 endfacet
 facet normal -0.996917 -0.078459 0.000000
  outer loop
   vertex 54.000000 225.000000 0.000000
   vertex 54.443220 219.368359 0.000000
   vertex 54.443220 219.368359 2.000000
  endloop
 endfacet
 facet normal -0.996917 -0.078459 0.000000
  outer loop
   vertex 54.000000 225.000000 0.000000
   vertex 54.443220 219.368359 2.000000
   vertex 54.000000 225.000000 2.000000
  endloop
 endfacet
 facet normal -0.972370 -0.233445 0.000000
  outer loop
   vertex 54.443220 219.368359 0.000000
   vertex 55.761965 213.875388 0.000000
   vertex 55.761965 213.875388 2.000000
  endloop
 endfacet
 facet normal -0.972370 -0.233445 0.000000
  outer loop
   vertex 54.443220 219.368359 0.000000
   vertex 55.761965 213.875388 2.000000
   vertex 54.443220 219.368359 2.000000
  endloop
 endfacet
 facet normal -0.923880 -0.382683 0.000000
  outer loop
   vertex 55.761965 213.875388 0.000000
   vertex 57.923765 208.656342 0.000000
   vertex 57.923765 208.656342 2.000000
  endloop
 endfacet
 facet normal -0.923880 -0.382683 0.000000
  outer loop
   vertex 55.761965 213.875388 0.000000
   vertex 57.923765 208.656342 2.000000
   vertex 55.761965 213.875388 2.000000
  endloop
 endfacet
 facet normal -0.852640 -0.522499 0.000000
  outer loop
   vertex 57.923765 208.656342 0.000000
   vertex 60.875388 203.839731 0.000000
   vertex 60.875388 203.839731 2.000000
  endloop
 endfacet
 facet normal -0.852640 -0.522499 0.000000
  outer loop
   vertex 57.923765 208.656342 0.000000
   vertex 60.875388 203.839731 2.000000
   vertex 57.923765 208.656342 2.000000
  endloop
 endfacet
 facet normal -0.760406 -0.649448 0.000000
  outer loop
   vertex 60.875388 203.839731 0.000000
   vertex 64.544156 199.544156 0.000000
   vertex 64.544156 199.544156 2.000000
  endloop
 endfacet
 facet normal -0.760406 -0.649448 0.000000
  outer loop
   vertex 60.875388 203.839731 0.000000
   vertex 64.544156 199.544156 2.000000
   vertex 60.875388 203.839731 2.000000
  endloop
 endfacet
 facet normal -0.649448 -0.760406 0.000000
  outer loop
   vertex 64.544156 199.544156 0.000000
   vertex 68.839731 195.875388 0.000000
   vertex 68.839731 195.875388 2.000000
  endloop
 endfacet
 facet normal -0.649448 -0.760406 0.000000
  outer loop
   vertex 64.544156 199.544156 0.000000
   vertex 68.839731 195.875388 2.000000
   vertex 64.544156 199.544156 2.000000
  endloop
 endfacet
 facet normal -0.522499 -0.852640 0.000000
  outer loop
   vertex 68.839731 195.875388 0.000000
   vertex 73.656342 192.923765 0.000000
   vertex 73.656342 192.923765 2.000000
  endloop
 endfacet
 facet normal -0.522499 -0.852640 0.000000
  outer loop
   vertex 68.839731 195.875388 0.000000
   vertex 73.656342 192.923765 2.000000
   vertex 68.839731 195.875388 2.000000
  endloop
 endfacet
 facet normal -0.382683 -0.923880 0.000000
  outer loop
   vertex 73.656342 192.923765 0.000000
   vertex 78.875388 190.761965 0.000000
   vertex 78.875388 190.761965 2.000000
  endloop
 endfacet
 facet normal -0.382683 -0.923880 0.000000
  outer loop
   vertex 73.656342 192.923765 0.000000
   vertex 78.875388 190.761965 2.000000
   vertex 73.656342 192.923765 2.000000
  endloop
 endfacet
 facet normal -0.233445 -0.972370 0.000000
  outer loop
   vertex 78.875388 190.761965 0.000000
   vertex 84.368359 189.443220 0.000000
   vertex 84.368359 189.443220 2.000000
  endloop
 endfacet
 facet normal -0.233445 -0.972370 0.000000
  outer loop
   vertex 78.875388 190.761965 0.000000
   vertex 84.368359 189.443220 2.000000
   vertex 78.875388 190.761965 2.000000
  endloop
 endfacet
 facet normal -0.078459 -0.996917 0.000000
  outer loop
   vertex 84.368359 189.443220 0.000000
   vertex 90.000000 189.000000 0.000000
   vertex 90.000000 189.000000 2.000000
  endloop
 endfacet
 facet normal -0.078459 -0.996917 0.000000
  outer loop
   vertex 84.368359 189.443220 0.000000
   vertex 90.000000 189.000000 2.000000
   vertex 84.368359 189.443220 2.000000
  endloop
 endfacet
 facet normal 0.078459 -0.996917 0.000000
  outer loop
   vertex 90.000000 189.000000 0.000000
   vertex 95.631641 189.443220 0.000000
   vertex 95.631641 189.443220 2.000000
  endloop
 endfacet
 facet normal 0.078459 -0.996917 0.000000
  outer loop
   vertex 90.000000 189.000000 0.000000
   vertex 95.631641 189.443220 2.000000
   vertex 90.000000 189.000000 2.000000
  endloop
 endfacet
 facet normal 0.233445 -0.972370 0.000000
  outer loop
   vertex 95.631641 189.443220 0.000000
   vertex 101.124612 190.761965 0.000000
   vertex 101.124612 190.761965 2.000000
  endloop
 endfacet
 facet normal 0.233445 -0.972370 0.000000
  outer loop
   vertex 95.631641 189.443220 0.000000
   vertex 101.124612 190.761965 2.000000
   vertex 95.631641 189.443220 2.000000
  endloop
 endfacet
 facet normal 0.382683 -0.923880 0.000000
  outer loop
   vertex 101.124612 190.761965 0.000000
   vertex 106.343658 192.923765 0.000000
   vertex 106.343658 192.923765 2.000000
  endloop
 endfacet
 facet normal 0.382683 -0.923880 0.000000
  outer loop
   vertex 101.124612 190.761965 0.000000
   vertex 106.343658 192.923765 2.000000
   vertex 101.124612 190.761965 2.000000
  endloop
 endfacet
 facet normal 0.522499 -0.852640 0.000000
  outer loop
   vertex 106.343658 192.923765 0.000000
   vertex 111.160269 195.875388 0.000000
   vertex 111.160269 195.875388 2.000000
  endloop
 endfacet
 facet normal 0.522499 -0.852640 0.000000
  outer loop
   vertex 106.343658 192.923765 0.000000
   vertex 111.160269 195.875388 2.000000
   vertex 106.343658 192.923765 2.000000
  endloop
 endfacet
 facet normal 0.649448 -0.760406 0.000000
  outer loop
   vertex 111.160269 195.875388 0.000000
   vertex 115.455844 199.544156 0.000000
   vertex 115.455844 199.544156 2.000000
  endloop
 endfacet
 facet normal 0.649448 -0.760406 0.000000
  outer loop
   vertex 111.160269 195.875388 0.000000
   vertex 115.455844 199.544156 2.000000
   vertex 111.160269 195.875388 2.000000
  endloop
 endfacet
 facet normal 0.760406 -0.649448 0.000000
  outer loop
   vertex 115.455844 199.544156 0.000000
   vertex 119.124612 203.839731 0.000000
   vertex 119.124612 203.839731 2.000000
  endloop
 endfacet
 facet normal 0.760406 -0.649448 0.000000
  outer loop
   vertex 115.455844 199.544156 0.000000
   vertex 119.124612 203.839731 2.000000
   vertex 115.455844 199.544156 2.000000
  endloop
 endfacet
 facet normal 0.852640 -0.522499 0.000000
  outer loop
   vertex 119.124612 203.839731 0.000000
   vertex 122.076235 208.656342 0.000000
   vertex 122.076235 208.656342 2.000000
  endloop
 endfacet
 facet normal 0.852640 -0.522499 0.000000
  outer loop
   vertex 119.124612 203.839731 0.000000
   vertex 122.076235 208.656342 2.000000
   vertex 119.124612 203.839731 2.000000
  endloop
 endfacet
 facet normal 0.923880 -0.382683 0.000000
  outer loop
   vertex 122.076235 208.656342 0.000000
   vertex 124.238035 213.875388 0.000000
   vertex 124.238035 213.875388 2.000000
  endloop
 endfacet
 facet normal 0.923880 -0.382683 0.000000
  outer loop
   vertex 122.076235 208.656342 0.000000
   vertex 124.238035 213.875388 2.000000
   vertex 122.076235 208.656342 2.000000
  endloop
 endfacet
 facet normal 0.972370 -0.233445 0.000000
  outer loop
   vertex 124.238035 213.875388 0.000000
   vertex 125.556780 219.368359 0.000000
   vertex 125.556780 219.368359 2.000000
  endloop
 endfacet
 facet normal 0.972370 -0.233445 0.000000
  outer loop
   vertex 124.238035 213.875388 0.000000
   vertex 125.556780 219.368359 2.000000
   vertex 124.238035 213.875388 2.000000
  endloop
 endfacet
 facet normal 0.996917 -0.078459 0.000000
  outer loop
   vertex 125.556780 219.368359 0.000000
   vertex 126.000000 225.000000 0.000000
   vertex 126.000000 225.000000 2.000000
  endloop
 endfacet
 facet normal 0.996917 -0.078459 0.000000
  outer loop
   vertex 125.556780 219.368359 0.000000
   vertex 126.000000 225.000000 2.000000
   vertex 125.556780 219.368359 2.000000
  endloop
 endfacet
 facet normal 0.000000 0.000000 1.000000
  outer loop
   vertex 90.000000 225.000000 2.000000
   vertex 126.000000 225.000000 2.000000
   vertex 125.556780 230.631641 2.000000
  endloop
 endfacet
 facet normal 0.000000 0.000000 1.000000
  outer loop
   vertex 90.000000 225.000000 2.000000
   vertex 125.556780 230.631641 2.000000
   vertex 124.238035 236.124612 2.000000
  endloop
 endfacet
 facet normal 0.000000 0.000000 1.000000
  outer loop
   vertex 90.000000 225.000000 2.000000
   vertex 124.238035 236.124612 2.000000
   vertex 122.076235 241.343658 2.000000
  endloop
 endfacet
 facet normal 0.000000 0.000000 1.000000
  outer loop
   vertex 90.000000 225.000000 2.000000
   vertex 122.076235 241.343658 2.000000
   vertex 119.124612 246.160269 2.000000
  endloop
 endfacet
 facet normal 0.000000 0.000000 1.000000
  outer loop
   vertex 90.000000 225.000000 2.000000
   vertex 119.124612 246.160269 2.000000
   vertex 115.455844 250.455844 2.000000
  endloop
 endfacet
 facet normal 0.000000 0.000000 1.000000
  outer loop
   vertex 90.000000 225.000000 2.000000
   vertex 115.455844 250.455844 2.000000
   vertex 111.160269 254.124612 2.000000
  endloop
 endfacet
 facet normal 0.000000 0.000000 1.000000
  outer loop
   vertex 90.000000 225.000000 2.000000
   vertex 111.160269 254.124612 2.000000
   vertex 106.343658 257.076235 2.000000
  endloop
 endfacet
 facet normal 0.000000 0.000000 1.000000
  outer loop
   vertex 90.000000 225.000000 2.000000
   vertex 106.343658 257.076235 2.000000
   vertex 101.124612 259.238035 2.000000
  endloop
 endfacet
 facet normal 0.000000 0.000000 1.000000
  outer loop
   vertex 90.000000 225.000000 2.000000
   vertex 101.124612 259.238035 2.000000
   vertex 95.631641 260.556780 2.000000
  endloop
 endfacet
 facet normal 0.000000 0.000000 1.000000
  outer loop
   vertex 90.000000 225.000000 2.000000
   vertex 95.631641 260.556780 2.000000
   vertex 90.000000 261.000000 2.000000
  endloop
 endfacet
 facet normal 0.000000 -0.000000 1.000000
  outer loop
   vertex 90.000000 225.000000 2.000000
   vertex 90.000000 261.000000 2.000000
   vertex 84.368359 260.556780 2.000000
  endloop
 endfacet
 facet normal 0.000000 0.000000 1.000000
  outer loop
   vertex 90.000000 225.000000 2.000000
   vertex 84.368359 260.556780 2.000000
   vertex 78.875388 259.238035 2.000000
  endloop
 endfacet
 facet normal 0.000000 0.000000 1.000000
  outer loop
   vertex 90.000000 225.000000 2.000000
   vertex 78.875388 259.238035 2.000000
   vertex 73.656342 257.076235 2.000000
  endloop
 endfacet
 facet normal 0.000000 0.000000 1.000000
  outer loop
   vertex 90.000000 225.000000 2.000000
   vertex 73.656342 257.076235 2.000000
   vertex 68.839731 254.124612 2.000000
  endloop
 endfacet
 facet normal 0.000000 0.000000 1.000000
  outer loop
   vertex 90.000000 225.000000 2.000000
   vertex 68.839731 254.124612 2.000000
   vertex 64.544156 250.455844 2.000000
  endloop
 endfacet
 facet normal 0.000000 0.000000 1.000000
  outer loop
   vertex 90.000000 225.000000 2.000000
   vertex 64.544156 250.455844 2.000000
   vertex 60.875388 246.160269 2.000000
  endloop
 endfacet
 facet normal 0.000000 0.000000 1.000000
  outer loop
   vertex 90.000000 225.000000 2.000000
   vertex 60.875388 246.160269 2.000000
   vertex 57.923765 241.343658 2.000000
  endloop
 endfacet
 facet normal 0.000000 0.000000 1.000000
  outer loop
   vertex 90.000000 225.000000 2.000000
   vertex 57.923765 241.343658 2.000000
   vertex 55.761965 236.124612 2.000000
  endloop
 endfacet
 facet normal 0.000000 0.000000 1.000000
  outer loop
   vertex 90.000000 225.000000 2.000000
   vertex 55.761965 236.124612 2.000000
   vertex 54.443220 230.631641 2.000000
  endloop
 endfacet
 facet normal 0.000000 0.000000 1.000000
  outer loop
   vertex 90.000000 225.000000 2.000000
   vertex 54.443220 230.631641 2.000000
   vertex 54.000000 225.000000 2.000000
  endloop
 endfacet
 facet normal 0.000000 0.000000 1.000000
  outer loop
   vertex 90.000000 225.000000 2.000000
   vertex 54.000000 225.000000 2.000000
   vertex 54.443220 219.368359 2.000000
  endloop
 endfacet
 facet normal 0.000000 0.000000 1.000000
  outer loop
   vertex 90.000000 225.000000 2.000000
   vertex 54.443220 219.368359 2.000000
   vertex 55.761965 213.875388 2.000000
  endloop
 endfacet
 facet normal 0.000000 0.000000 1.000000
  outer loop
   vertex 90.000000 225.000000 2.000000
   vertex 55.761965 213.875388 2.000000
   vertex 57.923765 208.656342 2.000000
  endloop
 endfacet
 facet normal 0.000000 0.000000 1.000000
  outer loop
   vertex 90.000000 225.000000 2.000000
   vertex 57.923765 208.656342 2.000000
   vertex 60.875388 203.839731 2.000000
  endloop
 endfacet
 facet normal 0.000000 0.000000 1.000000
  outer loop
   vertex 90.000000 225.000000 2.000000
   vertex 60.875388 203.839731 2.000000
   vertex 64.544156 199.544156 2.000000
  endloop
 endfacet
 facet normal 0.000000 0.000000 1.000000
  outer loop
   vertex 90.000000 225.000000 2.000000
   vertex 64.544156 199.544156 2.000000
   vertex 68.839731 195.875388 2.000000
  endloop
 endfacet
 facet normal 0.000000 0.000000 1.000000
  outer loop
   vertex 90.000000 225.000000 2.000000
   vertex 68.839731 195.875388 2.000000
   vertex 73.656342 192.923765 2.000000
  endloop
 endfacet
 facet normal 0.000000 0.000000 1.000000
  outer loop
   vertex 90.000000 225.000000 2.000000
   vertex 73.656342 192.923765 2.000000
   vertex 78.875388 190.761965 2.000000
  endloop
 endfacet
 facet normal 0.000000 0.000000 1.000000
  outer loop
   vertex 90.000000 225.000000 2.000000
   vertex 78.875388 190.761965 2.000000
   vertex 84.368359 189.443220 2.000000
  endloop
 endfacet
 facet normal 0.000000 0.000000 1.000000
  outer loop
   vertex 90.000000 225.000000 2.000000
   vertex 84.368359 189.443220 2.000000
   vertex 90.000000 189.000000 2.000000
  endloop
 endfacet
 facet normal 0.000000 0.000000 1.000000
  outer loop
   vertex 90.000000 225.000000 2.000000
   vertex 90.000000 189.000000 2.000000
   vertex 95.631641 189.443220 2.000000
  endloop
 endfacet
 facet normal 0.000000 0.000000 1.000000
  outer loop
   vertex 90.000000 225.000000 2.000000
   vertex 95.631641 189.443220 2.000000
   vertex 101.124612 190.761965 2.000000
  endloop
 endfacet
 facet normal 0.000000 0.000000 1.000000
  outer loop
   vertex 90.000000 225.000000 2.000000
   vertex 101.124612 190.761965 2.000000
   vertex 106.343658 192.923765 2.000000
  endloop
 endfacet
 facet normal 0.000000 0.000000 1.000000
  outer loop
   vertex 90.000000 225.000000 2.000000
   vertex 106.343658 192.923765 2.000000
   vertex 111.160269 195.875388 2.000000
  endloop
 endfacet
 facet normal 0.000000 0.000000 1.000000
  outer loop
   vertex 90.000000 225.000000 2.000000
   vertex 111.160269 195.875388 2.000000
   vertex 115.455844 199.544156 2.000000
  endloop
 endfacet
 facet normal 0.000000 0.000000 1.000000
  outer loop
   vertex 90.000000 225.000000 2.000000
   vertex 115.455844 199.544156 2.000000
   vertex 119.124612 203.839731 2.000000
  endloop
 endfacet
 facet normal 0.000000 0.000000 1.000000
  outer loop
   vertex 90.000000 225.000000 2.000000
   vertex 119.124612 203.839731 2.000000
   vertex 122.076235 208.656342 2.000000
  endloop
 endfacet
 facet normal 0.000000 0.000000 1.000000
  outer loop
   vertex 90.000000 225.000000 2.000000
   vertex 122.076235 208.656342 2.000000
   vertex 124.238035 213.875388 2.000000
  endloop
 endfacet
 facet normal 0.000000 0.000000 1.000000
  outer loop
   vertex 90.000000 225.000000 2.000000
   vertex 124.238035 213.875388 2.000000
   vertex 125.556780 219.368359 2.000000
  endloop
 endfacet
 facet normal -0.000000 0.000000 1.000000
  outer loop
   vertex 90.000000 225.000000 2.000000
   vertex 125.556780 219.368359 2.000000
   vertex 126.000000 225.000000 2.000000
  endloop
 endfacet
 facet normal 0.996917 0.078459 0.000000
  outer loop
   vertex 240.000000 180.000000 0.000000
   vertex 239.630650 184.693034 0.000000
   vertex 239.630650 184.693034 2.000000
  endloop
 endfacet
 facet normal 0.996917 0.078459 -0.000000
  outer loop
   vertex 240.000000 180.000000 0.000000
   vertex 239.630650 184.693034 2.000000
   vertex 240.000000 180.000000 2.000000
  endloop
 endfacet
 facet normal 0.972370 0.233445 0.000000
  outer loop
   vertex 239.630650 184.693034 0.000000
   vertex 238.531695 189.270510 0.000000
   vertex 238.531695 189.270510 2.000000
  endloop
 endfacet
 facet normal 0.972370 0.233445 -0.000000
  outer loop
   vertex 239.630650 184.693034 0.000000
   vertex 238.531695 189.270510 2.000000
   vertex 239.630650 184.693034 2.000000
  endloop
 endfacet
 facet normal 0.923880 0.382683 0.000000
  outer loop
   vertex 238.531695 189.270510 0.000000
   vertex 236.730196 193.619715 0.000000
   vertex 236.730196 193.619715 2.000000
  endloop
 endfacet
 facet normal 0.923880 0.382683 -0.000000
  outer loop
   vertex 238.531695 189.270510 0.000000
   vertex 236.730196 193.619715 2.000000
   vertex 238.531695 189.270510 2.000000
  endloop
 endfacet
 facet normal 0.852640 0.522499 0.000000
  outer loop
   vertex 236.730196 193.619715 0.000000
   vertex 234.270510 197.633558 0.000000
   vertex 234.270510 197.633558 2.000000
  endloop
 endfacet
 facet normal 0.852640 0.522499 -0.000000
  outer loop
   vertex 236.730196 193.619715 0.000000
   vertex 234.270510 197.633558 2.000000
   vertex 236.730196 193.619715 2.000000
  endloop
 endfacet
 facet normal 0.760406 0.649448 0.000000
  outer loop
   vertex 234.270510 197.633558 0.000000
   vertex 231.213203 201.213203 0.000000
   vertex 231.213203 201.213203 2.000000
  endloop
 endfacet
 facet normal 0.760406 0.649448 -0.000000
  outer loop
   vertex 234.270510 197.633558 0.000000
   vertex 231.213203 201.213203 2.000000
   vertex 234.270510 197.633558 2.000000
  endloop
 endfacet
 facet normal 0.649448 0.760406 0.000000
  outer loop
   vertex 231.213203 201.213203 0.000000
   vertex 227.633558 204.270510 0.000000
   vertex 227.633558 204.270510 2.000000
  endloop
 endfacet
 facet normal 0.649448 0.760406 -0.000000
  outer loop
   vertex 231.213203 201.213203 0.000000
   vertex 227.633558 204.270510 2.000000
   vertex 231.213203 201.213203 2.000000
  endloop
 endfacet
 facet normal 0.522499 0.852640 0.000000
  outer loop
   vertex 227.633558 204.270510 0.000000
   vertex 223.619715 206.730196 0.000000
   vertex 223.619715 206.730196 2.000000
  endloop
 endfacet
 facet normal 0.522499 0.852640 -0.000000
  outer loop
   vertex 227.633558 204.270510 0.000000
   vertex 223.619715 206.730196 2.000000
   vertex 227.633558 204.270510 2.000000
  endloop
 endfacet
 facet normal 0.382683 0.923880 0.000000
  outer loop
   vertex 223.619715 206.730196 0.000000
   vertex 219.270510 208.531695 0.000000
   vertex 219.270510 208.531695 2.000000
  endloop
 endfacet
 facet normal 0.382683 0.923880 -0.000000
  outer loop
   vertex 223.619715 206.730196 0.000000
   vertex 219.270510 208.531695 2.000000
   vertex 223.619715 206.730196 2.000000
  endloop
 endfacet
 facet normal 0.233445 0.972370 0.000000
  outer loop
   vertex 219.270510 208.531695 0.000000
   vertex 214.693034 209.630650 0.000000
   vertex 214.693034 209.630650 2.000000
  endloop
 endfacet
 facet normal 0.233445 0.972370 -0.000000
  outer loop
   vertex 219.270510 208.531695 0.000000
   vertex 214.693034 209.630650 2.000000
   vertex 219.270510 208.531695 2.000000
  endloop
 endfacet
 facet normal 0.078459 0.996917 0.000000
  outer loop
   vertex 214.693034 209.630650 0.000000
   vertex 210.000000 210.000000 0.000000
   vertex 210.000000 210.000000 2.000000
  endloop
 endfacet
 facet normal 0.078459 0.996917 -0.000000
  outer loop
   vertex 214.693034 209.630650 0.000000
   vertex 210.000000 210.000000 2.000000
   vertex 214.693034 209.630650 2.000000
  endloop
 endfacet
 facet normal -0.078459 0.996917 0.000000
  outer loop
   vertex 210.000000 210.000000 0.000000
   vertex 205.306966 209.630650 0.000000
   vertex 205.306966 209.630650 2.000000
  endloop
 endfacet
 facet normal -0.078459 0.996917 0.000000
  outer loop
   vertex 210.000000 210.000000 0.000000
   vertex 205.306966 209.630650 2.000000
   vertex 210.000000 210.000000 2.000000
  endloop
 endfacet
 facet normal -0.233445 0.972370 0.000000
  outer loop
   vertex 205.306966 209.630650 0.000000
   vertex 200.729490 208.531695 0.000000
   vertex 200.729490 208.531695 2.000000
  endloop
 endfacet
 facet normal -0.233445 0.972370 0.000000
  outer loop
   vertex 205.306966 209.630650 0.000000
   vertex 200.729490 208.531695 2.000000
   vertex 205.306966 209.630650 2.000000
  endloop
 endfacet
 facet normal -0.382683 0.923880 0.000000
  outer loop
   vertex 200.729490 208.531695 0.000000
   vertex 196.380285 206.730196 0.000000
   vertex 196.380285 206.730196 2.000000
  endloop
 endfacet
 facet normal -0.382683 0.923880 0.000000
  outer loop
   vertex 200.729490 208.531695 0.000000
   vertex 196.380285 206.730196 2.000000
   vertex 200.729490 208.531695 2.000000
  endloop
 endfacet
 facet normal -0.522499 0.852640 0.000000
  outer loop
   vertex 196.380285 206.730196 0.000000
   vertex 192.366442 204.270510 0.000000
   vertex 192.366442 204.270510 2.000000
  endloop
 endfacet
 facet normal -0.522499 0.852640 0.000000
  outer loop
   vertex 196.380285 206.730196 0.000000
   vertex 192.366442 204.270510 2.000000
   vertex 196.380285 206.730196 2.000000
  endloop
 endfacet
 facet normal -0.649448 0.760406 0.000000
  outer loop
   vertex 192.366442 204.270510 0.000000
   vertex 188.786797 201.213203 0.000000
   vertex 188.786797 201.213203 2.000000
  endloop
 endfacet
 facet normal -0.649448 0.760406 0.000000
  outer loop
   vertex 192.366442 204.270510 0.000000
   vertex 188.786797 201.213203 2.000000
   vertex 192.366442 204.270510 2.000000
  endloop
 endfacet
 facet normal -0.760406 0.649448 0.000000
  outer loop
   vertex 188.786797 201.213203 0.000000
   vertex 185.729490 197.633558 0.000000
   vertex 185.729490 197.633558 2.000000
  endloop
 endfacet
 facet normal -0.760406 0.649448 0.000000
  outer loop
   vertex 188.786797 201.213203 0.000000
   vertex 185.729490 197.633558 2.000000
   vertex 188.786797 201.213203 2.000000
  endloop
 endfacet
 facet normal -0.852640 0.522499 0.000000
  outer loop
   vertex 185.729490 197.633558 0.000000
   vertex 183.269804 193.619715 0.000000
   vertex 183.269804 193.619715 2.000000
  endloop
 endfacet
 facet normal -0.852640 0.522499 0.000000
  outer loop
   vertex 185.729490 197.633558 0.000000
   vertex 183.269804 193.619715 2.000000
   vertex 185.729490 197.633558 2.000000
  endloop
 endfacet
 facet normal -0.923880 0.382683 0.000000
  outer loop
   vertex 183.269804 193.619715 0.000000
   vertex 181.468305 189.270510 0.000000
   vertex 181.468305 189.270510 2.000000
  endloop
 endfacet
 facet normal -0.923880 0.382683 0.000000
  outer loop
   vertex 183.269804 193.619715 0.000000
   vertex 181.468305 189.270510 2.000000
   vertex 183.269804 193.619715 2.000000
  endloop
 endfacet
 facet normal -0.972370 0.233445 0.000000
  outer loop
   vertex 181.468305 189.270510 0.000000
   vertex 180.369350 184.693034 0.000000
   vertex 180.369350 184.693034 2.000000
  endloop
 endfacet
 facet normal -0.972370 0.233445 0.000000
  outer loop
   vertex 181.468305 189.270510 0.000000
   vertex 180.369350 184.693034 2.000000
   vertex 181.468305 189.270510 2.000000
  endloop
 endfacet
 facet normal -0.996917 0.078459 0.000000
  outer loop
   vertex 180.369350 184.693034 0.000000
   vertex 180.000000 180.000000 0.000000
   vertex 180.000000 180.000000 2.000000
  endloop
 endfacet
 facet normal -0.996917 0.078459 0.000000
  outer loop
   vertex 180.369350 184.693034 0.000000
   vertex 180.000000 180.000000 2.000000
   vertex 180.369350 184.693034 2.000000
  endloop
 endfacet
 facet normal -0.996917 -0.078459 0.000000
  outer loop
   vertex 180.000000 180.000000 0.000000
   vertex 180.369350 175.306966 0.000000
   vertex 180.369350 175.306966 2.000000
  endloop
 endfacet
 facet normal -0.996917 -0.078459 0.000000
  outer loop
   vertex 180.000000 180.000000 0.000000
   vertex 180.369350 175.306966 2.000000
   vertex 180.000000 180.000000 2.000000
  endloop
 endfacet
 facet normal -0.972370 -0.233445 0.000000
  outer loop
   vertex 180.369350 175.306966 0.000000
   vertex 181.468305 170.729490 0.000000
   vertex 181.468305 170.729490 2.000000
  endloop
 endfacet
 facet normal -0.972370 -0.233445 0.000000
  outer loop
   vertex 180.369350 175.306966 0.000000
   vertex 181.468305 170.729490 2.000000
   vertex 180.369350 175.306966 2.000000
  endloop
 endfacet
 facet normal -0.923880 -0.382683 0.000000
  outer loop
   vertex 181.468305 170.729490 0.000000
   vertex 183.269804 166.380285 0.000000
   vertex 183.269804 166.380285 2.000000
  endloop
 endfacet
 facet normal -0.923880 -0.382683 0.000000
  outer loop
   vertex 181.468305 170.729490 0.000000
   vertex 183.269804 166.380285 2.000000
   vertex 181.468305 170.729490 2.000000
  endloop
 endfacet
 facet normal -0.852640 -0.522499 0.000000
  outer loop
   vertex 183.269804 166.380285 0.000000
   vertex 185.729490 162.366442 0.000000
   vertex 185.729490 162.366442 2.000000
  endloop
 endfacet
 facet normal -0.852640 -0.522499 0.000000
  outer loop
   vertex 183.269804 166.380285 0.000000
   vertex 185.729490 162.366442 2.000000
   vertex 183.269804 166.380285 2.000000
  endloop
 endfacet
 facet normal -0.760406 -0.649448 0.000000
  outer loop
   vertex 185.729490 162.366442 0.000000
   vertex 188.786797 158.786797 0.000000
   vertex 188.786797 158.786797 2.000000
  endloop
 endfacet
 facet normal -0.760406 -0.649448 0.000000
  outer loop
   vertex 185.729490 162.366442 0.000000
   vertex 188.786797 158.786797 2.000000
   vertex 185.729490 162.366442 2.000000
  endloop
 endfacet
 facet normal -0.649448 -0.760406 0.000000
  outer loop
   vertex 188.786797 158.786797 0.000000
   vertex 192.366442 155.729490 0.000000
   vertex 192.366442 155.729490 2.000000
  endloop
 endfacet
 facet normal -0.649448 -0.760406 0.000000
  outer loop
   vertex 188.786797 158.786797 0.000000
   vertex 192.366442 155.729490 2.000000
   vertex 188.786797 158.786797 2.000000
  endloop
 endfacet
 facet normal -0.522499 -0.852640 0.000000
  outer loop
   vertex 192.366442 155.729490 0.000000
   vertex 196.380285 153.269804 0.000000
   vertex 196.380285 153.269804 2.000000
  endloop
 endfacet
 facet normal -0.522499 -0.852640 0.000000
  outer loop
   vertex 192.366442 155.729490 0.000000
   vertex 196.380285 153.269804 2.000000
   vertex 192.366442 155.729490 2.000000
  endloop
 endfacet
 facet normal -0.382683 -0.923880 0.000000
  outer loop
   vertex 196.380285 153.269804 0.000000
   vertex 200.729490 151.468305 0.000000
   vertex 200.729490 151.468305 2.000000
  endloop
 endfacet
 facet normal -0.382683 -0.923880 0.000000
  outer loop
   vertex 196.380285 153.269804 0.000000
   vertex 200.729490 151.468305 2.000000
   vertex 196.380285 153.269804 2.000000
  endloop
 endfacet
 facet normal -0.233445 -0.972370 0.000000
  outer loop
   vertex 200.729490 151.468305 0.000000
   vertex 205.306966 150.369350 0.000000
   vertex 205.306966 150.369350 2.000000
  endloop
 endfacet
 facet normal -0.233445 -0.972370 0.000000
  outer loop
   vertex 200.729490 151.468305 0.000000
   vertex 205.306966 150.369350 2.000000
   vertex 200.729490 151.468305 2.000000
  endloop
 endfacet
 facet normal -0.078459 -0.996917 0.000000
  outer loop
   vertex 205.306966 150.369350 0.000000
   vertex 210.000000 150.000000 0.000000
   vertex 210.000000 150.000000 2.000000
  endloop
 endfacet
 facet normal -0.078459 -0.996917 0.000000
  outer loop
   vertex 205.306966 150.369350 0.000000
   vertex 210.000000 150.000000 2.000000
   vertex 205.306966 150.369350 2.000000
  endloop
 endfacet
 facet normal 0.078459 -0.996917 0.000000
  outer loop
   vertex 210.000000 150.000000 0.000000
   vertex 214.693034 150.369350 0.000000
   vertex 214.693034 150.369350 2.000000
  endloop
 endfacet
 facet normal 0.078459 -0.996917 0.000000
  outer loop
   vertex 210.000000 150.000000 0.000000
   vertex 214.693034 150.369350 2.000000
   vertex 210.000000 150.000000 2.000000
  endloop
 endfacet
 facet normal 0.233445 -0.972370 0.000000
  outer loop
   vertex 214.693034 150.369350 0.000000
   vertex 219.270510 151.468305 0.000000
   vertex 219.270510 151.468305 2.000000
  endloop
 endfacet
 facet normal 0.233445 -0.972370 0.000000
  outer loop
   vertex 214.693034 150.369350 0.000000
   vertex 219.270510 151.468305 2.000000
   vertex 214.693034 150.369350 2.000000
  endloop
 endfacet
 facet normal 0.382683 -0.923880 0.000000
  outer loop
   vertex 219.270510 151.468305 0.000000
   vertex 223.619715 153.269804 0.000000
   vertex 223.619715 153.269804 2.000000
  endloop
 endfacet
 facet normal 0.382683 -0.923880 0.000000
  outer loop
   vertex 219.270510 151.468305 0.000000
   vertex 223.619715 153.269804 2.000000
   vertex 219.270510 151.468305 2.000000
  endloop
 endfacet
 facet normal 0.522499 -0.852640 0.000000
  outer loop
   vertex 223.619715 153.269804 0.000000
   vertex 227.633558 155.729490 0.000000
   vertex 227.633558 155.729490 2.000000
  endloop
 endfacet
 facet normal 0.522499 -0.852640 0.000000
  outer loop
   vertex 223.619715 153.269804 0.000000
   vertex 227.633558 155.729490 2.000000
   vertex 223.619715 153.269804 2.000000
  endloop
 endfacet
 facet normal 0.649448 -0.760406 0.000000
  outer loop
   vertex 227.633558 155.729490 0.000000
   vertex 231.213203 158.786797 0.000000
   vertex 231.213203 158.786797 2.000000
  endloop
 endfacet
 facet normal 0.649448 -0.760406 0.000000
  outer loop
   vertex 227.633558 155.729490 0.000000
   vertex 231.213203 158.786797 2.000000
   vertex 227.633558 155.729490 2.000000
  endloop
 endfacet
 facet normal 0.760406 -0.649448 0.000000
  outer loop
   vertex 231.213203 158.786797 0.000000
   vertex 234.270510 162.366442 0.000000
   vertex 234.270510 162.366442 2.000000
  endloop
 endfacet
 facet normal 0.760406 -0.649448 0.000000
  outer loop
   vertex 231.213203 158.786797 0.000000
   vertex 234.270510 162.366442 2.000000
   vertex 231.213203 158.786797 2.000000
  endloop
 endfacet
 facet normal 0.852640 -0.522499 0.000000
  outer loop
   vertex 234.270510 162.366442 0.000000
   vertex 236.730196 166.380285 0.000000
   vertex 236.730196 166.380285 2.000000
  endloop
 endfacet
 facet normal 0.852640 -0.522499 0.000000
  outer loop
   vertex 234.270510 162.366442 0.000000
   vertex 236.730196 166.380285 2.000000
   vertex 234.270510 162.366442 2.000000
  endloop
 endfacet
 facet normal 0.923880 -0.382683 0.000000
  outer loop
   vertex 236.730196 166.380285 0.000000
   vertex 238.531695 170.729490 0.000000
   vertex 238.531695 170.729490 2.000000
  endloop
 endfacet
 facet normal 0.923880 -0.382683 0.000000
  outer loop
   vertex 236.730196 166.380285 0.000000
   vertex 238.531695 170.729490 2.000000
   vertex 236.730196 166.380285 2.000000
  endloop
 endfacet
 facet normal 0.972370 -0.233445 0.000000
  outer loop
   vertex 238.531695 170.729490 0.000000
   vertex 239.630650 175.306966 0.000000
   vertex 239.630650 175.306966 2.000000
  endloop
 endfacet
 facet normal 0.972370 -0.233445 0.000000
  outer loop
   vertex 238.531695 170.729490 0.000000
   vertex 239.630650 175.306966 2.000000
   vertex 238.531695 170.729490 2.000000
  endloop
 endfacet
 facet normal 0.996917 -0.078459 0.000000
  outer loop
   vertex 239.630650 175.306966 0.000000
   vertex 240.000000 180.000000 0.000000
   vertex 240.000000 180.000000 2.000000
  endloop
 endfacet
 facet normal 0.996917 -0.078459 0.000000
  outer loop
   vertex 239.630650 175.306966 0.000000
   vertex 240.000000 180.000000 2.000000
   vertex 239.630650 175.306966 2.000000
  endloop
 endfacet
 facet normal 0.000000 0.000000 1.000000
  outer loop
   vertex 210.000000 180.000000 2.000000
   vertex 240.000000 180.000000 2.000000
   vertex 239.630650 184.693034 2.000000
  endloop
 endfacet
 facet normal 0.000000 0.000000 1.000000
  outer loop
   vertex 210.000000 180.000000 2.000000
   vertex 239.630650 184.693034 2.000000
   vertex 238.531695 189.270510 2.000000
  endloop
 endfacet
 facet normal 0.000000 0.000000 1.000000
  outer loop
   vertex 210.000000 180.000000 2.000000
   vertex 238.531695 189.270510 2.000000
   vertex 236.730196 193.619715 2.000000
  endloop
 endfacet
 facet normal 0.000000 0.000000 1.000000
  outer loop
   vertex 210.000000 180.000000 2.000000
   vertex 236.730196 193.619715 2.000000
   vertex 234.270510 197.633558 2.000000
  endloop
 endfacet
 facet normal 0.000000 0.000000 1.000000
  outer loop
   vertex 210.000000 180.000000 2.000000
   vertex 234.270510 197.633558 2.000000
   vertex 231.213203 201.213203 2.000000
  endloop
 endfacet
 facet normal 0.000000 0.000000 1.000000
  outer loop
   vertex 210.000000 180.000000 2.000000
   vertex 231.213203 201.213203 2.000000
   vertex 227.633558 204.270510 2.000000
  endloop
 endfacet
 facet normal 0.000000 0.000000 1.000000
  outer loop
   vertex 210.000000 180.000000 2.000000
   vertex 227.633558 204.270510 2.000000
   vertex 223.619715 206.730196 2.000000
  endloop
 endfacet
 facet normal 0.000000 0.000000 1.000000
  outer loop
   vertex 210.000000 180.000000 2.000000
   vertex 223.619715 206.730196 2.000000
   vertex 219.270510 208.531695 2.000000
  endloop
 endfacet
 facet normal 0.000000 0.000000 1.000000
  outer loop
   vertex 210.000000 180.000000 2.000000
   vertex 219.270510 208.531695 2.000000
   vertex 214.693034 209.630650 2.000000
  endloop
 endfacet
 facet normal 0.000000 0.000000 1.000000
  outer loop
   vertex 210.000000 180.000000 2.000000
   vertex 214.693034 209.630650 2.000000
   vertex 210.000000 210.000000 2.000000
  endloop
 endfacet
 facet normal 0.000000 -0.000000 1.000000
  outer loop
   vertex 210.000000 180.000000 2.000000
   vertex 210.000000 210.000000 2.000000
   vertex 205.306966 209.630650 2.000000
  endloop
 endfacet
 facet normal 0.000000 0.000000 1.000000
  outer loop
   vertex 210.000000 180.000000 2.000000
   vertex 205.306966 209.630650 2.000000
   vertex 200.729490 208.531695 2.000000
  endloop
 endfacet
 facet normal 0.000000 0.000000 1.000000
  outer loop
   vertex 210.000000 180.000000 2.000000
   vertex 200.729490 208.531695 2.000000
   vertex 196.380285 206.730196 2.000000
  endloop
 endfacet
 facet normal 0.000000 0.000000 1.000000
  outer loop
   vertex 210.000000 180.000000 2.000000
   vertex 196.380285 206.730196 2.000000
   vertex 192.366442 204.270510 2.000000
  endloop
 endfacet
 facet normal 0.000000 0.000000 1.000000
  outer loop
   vertex 210.000000 180.000000 2.000000
   vertex 192.366442 204.270510 2.000000
   vertex 188.786797 201.213203 2.000000
  endloop
 endfacet
 facet normal 0.000000 0.000000 1.000000
  outer loop
   vertex 210.000000 180.000000 2.000000
   vertex 188.786797 201.213203 2.000000
   vertex 185.729490 197.633558 2.000000
  endloop
 endfacet
 facet normal 0.000000 0.000000 1.000000
  outer loop
   vertex 210.000000 180.000000 2.000000
   vertex 185.729490 197.633558 2.000000
   vertex 183.269804 193.619715 2.000000
  endloop
 endfacet
 facet normal 0.000000 0.000000 1.000000
  outer loop
   vertex 210.000000 180.000000 2.000000
   vertex 183.269804 193.619715 2.000000
   vertex 181.468305 189.270510 2.000000
  endloop
 endfacet
 facet normal 0.000000 0.000000 1.000000
  outer loop
   vertex 210.000000 180.000000 2.000000
   vertex 181.468305 189.270510 2.000000
   vertex 180.369350 184.693034 2.000000
  endloop
 endfacet
 facet normal 0.000000 0.000000 1.000000
  outer loop
   vertex 210.000000 180.000000 2.000000
   vertex 180.369350 184.693034 2.000000
   vertex 180.000000 180.000000 2.000000
  endloop
 endfacet
 facet normal 0.000000 0.000000 1.000000
  outer loop
   vertex 210.000000 180.000000 2.000000
   vertex 180.000000 180.000000 2.000000
   vertex 180.369350 175.306966 2.000000
  endloop
 endfacet
 facet normal 0.000000 0.000000 1.000000
  outer loop
   vertex 210.000000 180.000000 2.000000
   vertex 180.369350 175.306966 2.000000
   vertex 181.468305 170.729490 2.000000
  endloop
 endfacet
 facet normal 0.000000 0.000000 1.000000
  outer loop
   vertex 210.000000 180.000000 2.000000
   vertex 181.468305 170.729490 2.000000
   vertex 183.269804 166.380285 2.000000
  endloop
 endfacet
 facet normal 0.000000 0.000000 1.000000
  outer loop
   vertex 210.000000 180.000000 2.000000
   vertex 183.269804 166.380285 2.000000
   vertex 185.729490 162.366442 2.000000
  endloop
 endfacet
 facet normal 0.000000 0.000000 1.000000
  outer loop
   vertex 210.000000 180.000000 2.000000
   vertex 185.729490 162.366442 2.000000
   vertex 188.786797 158.786797 2.000000
  endloop
 endfacet
 facet normal 0.000000 0.000000 1.000000
  outer loop
   vertex 210.000000 180.000000 2.000000
   vertex 188.786797 158.786797 2.000000
   vertex 192.366442 155.729490 2.000000
  endloop
 endfacet
 facet normal 0.000000 0.000000 1.000000
  outer loop
   vertex 210.000000 180.000000 2.000000
   vertex 192.366442 155.729490 2.000000
   vertex 196.380285 153.269804 2.000000
  endloop
 endfacet
 facet normal 0.000000 0.000000 1.000000
  outer loop
   vertex 210.000000 180.000000 2.000000
   vertex 196.380285 153.269804 2.000000
   vertex 200.729490 151.468305 2.000000
  endloop
 endfacet
 facet normal 0.000000 0.000000 1.000000
  outer loop
   vertex 210.000000 180.000000 2.000000
   vertex 200.729490 151.468305 2.000000
   vertex 205.306966 150.369350 2.000000
  endloop
 endfacet
 facet normal 0.000000 0.000000 1.000000
  outer loop
   vertex 210.000000 180.000000 2.000000
   vertex 205.306966 150.369350 2.000000
   vertex 210.000000 150.000000 2.000000
  endloop
 endfacet
 facet normal 0.000000 0.000000 1.000000
  outer loop
   vertex 210.000000 180.000000 2.000000
   vertex 210.000000 150.000000 2.000000
   vertex 214.693034 150.369350 2.000000
  endloop
 endfacet
 facet normal 0.000000 0.000000 1.000000
  outer loop
   vertex 210.000000 180.000000 2.000000
   vertex 214.693034 150.369350 2.000000
   vertex 219.270510 151.468305 2.000000
  endloop
 endfacet
 facet normal 0.000000 0.000000 1.000000
  outer loop
   vertex 210.000000 180.000000 2.000000
   vertex 219.270510 151.468305 2.000000
   vertex 223.619715 153.269804 2.000000
  endloop
 endfacet
 facet normal 0.000000 0.000000 1.000000
  outer loop
   vertex 210.000000 180.000000 2.000000
   vertex 223.619715 153.269804 2.000000
   vertex 227.633558 155.729490 2.000000
  endloop
 endfacet
 facet normal 0.000000 0.000000 1.000000
  outer loop
   vertex 210.000000 180.000000 2.000000
   vertex 227.633558 155.729490 2.000000
   vertex 231.213203 158.786797 2.000000
  endloop
 endfacet
 facet normal 0.000000 0.000000 1.000000
  outer loop
   vertex 210.000000 180.000000 2.000000
   vertex 231.213203 158.786797 2.000000
   vertex 234.270510 162.366442 2.000000
  endloop
 endfacet
 facet normal 0.000000 0.000000 1.000000
  outer loop
   vertex 210.000000 180.000000 2.000000
   vertex 234.270510 162.366442 2.000000
   vertex 236.730196 166.380285 2.000000
  endloop
 endfacet
 facet normal 0.000000 0.000000 1.000000
  outer loop
   vertex 210.000000 180.000000 2.000000
   vertex 236.730196 166.380285 2.000000
   vertex 238.531695 170.729490 2.000000
  endloop
 endfacet
 facet normal 0.000000 0.000000 1.000000
  outer loop
   vertex 210.000000 180.000000 2.000000
   vertex 238.531695 170.729490 2.000000
   vertex 239.630650 175.306966 2.000000
  endloop
 endfacet
 facet normal -0.000000 0.000000 1.000000
  outer loop
   vertex 210.000000 180.000000 2.000000
   vertex 239.630650 175.306966 2.000000
   vertex 240.000000 180.000000 2.000000
  endloop
 endfacet
 facet normal 0.996917 0.078459 0.000000
  outer loop
   vertex 180.000000 75.000000 0.000000
   vertex 179.630650 79.693034 0.000000
   vertex 179.630650 79.693034 2.000000
  endloop
 endfacet
 facet normal 0.996917 0.078459 -0.000000
  outer loop
   vertex 180.000000 75.000000 0.000000
   vertex 179.630650 79.693034 2.000000
   vertex 180.000000 75.000000 2.000000
  endloop
 endfacet
 facet normal 0.972370 0.233445 0.000000
  outer loop
   vertex 179.630650 79.693034 0.000000
   vertex 178.531695 84.270510 0.000000
   vertex 178.531695 84.270510 2.000000
  endloop
 endfacet
 facet normal 0.972370 0.233445 -0.000000
  outer loop
   vertex 179.630650 79.693034 0.000000
   vertex 178.531695 84.270510 2.000000
   vertex 179.630650 79.693034 2.000000
  endloop
 endfacet
 facet normal 0.923880 0.382683 0.000000
  outer loop
   vertex 178.531695 84.270510 0.000000
   vertex 176.730196 88.619715 0.000000
   vertex 176.730196 88.619715 2.000000
  endloop
 endfacet
 facet normal 0.923880 0.382683 -0.000000
  outer loop
   vertex 178.531695 84.270510 0.000000
   vertex 176.730196 88.619715 2.000000
   vertex 178.531695 84.270510 2.000000
  endloop
 endfacet
 facet normal 0.852640 0.522499 0.000000
  outer loop
   vertex 176.730196 88.619715 0.000000
   vertex 174.270510 92.633558 0.000000
   vertex 174.270510 92.633558 2.000000
  endloop
 endfacet
 facet normal 0.852640 0.522499 -0.000000
  outer loop
   vertex 176.730196 88.619715 0.000000
   vertex 174.270510 92.633558 2.000000
   vertex 176.730196 88.619715 2.000000
  endloop
 endfacet
 facet normal 0.760406 0.649448 0.000000
  outer loop
   vertex 174.270510 92.633558 0.000000
   vertex 171.213203 96.213203 0.000000
   vertex 171.213203 96.213203 2.000000
  endloop
 endfacet
 facet normal 0.760406 0.649448 -0.000000
  outer loop
   vertex 174.270510 92.633558 0.000000
   vertex 171.213203 96.213203 2.000000
   vertex 174.270510 92.633558 2.000000
  endloop
 endfacet
 facet normal 0.649448 0.760406 0.000000
  outer loop
   vertex 171.213203 96.213203 0.000000
   vertex 167.633558 99.270510 0.000000
   vertex 167.633558 99.270510 2.000000
  endloop
 endfacet
 facet normal 0.649448 0.760406 -0.000000
  outer loop
   vertex 171.213203 96.213203 0.000000
   vertex 167.633558 99.270510 2.000000
   vertex 171.213203 96.213203 2.000000
  endloop
 endfacet
 facet normal 0.522499 0.852640 0.000000
  outer loop
   vertex 167.633558 99.270510 0.000000
   vertex 163.619715 101.730196 0.000000
   vertex 163.619715 101.730196 2.000000
  endloop
 endfacet
 facet normal 0.522499 0.852640 -0.000000
  outer loop
   vertex 167.633558 99.270510 0.000000
   vertex 163.619715 101.730196 2.000000
   vertex 167.633558 99.270510 2.000000
  endloop
 endfacet
 facet normal 0.382683 0.923880 0.000000
  outer loop
   vertex 163.619715 101.730196 0.000000
   vertex 159.270510 103.531695 0.000000
   vertex 159.270510 103.531695 2.000000
  endloop
 endfacet
 facet normal 0.382683 0.923880 -0.000000
  outer loop
   vertex 163.619715 101.730196 0.000000
   vertex 159.270510 103.531695 2.000000
   vertex 163.619715 101.730196 2.000000
  endloop
 endfacet
 facet normal 0.233445 0.972370 0.000000
  outer loop
   vertex 159.270510 103.531695 0.000000
   vertex 154.693034 104.630650 0.000000
   vertex 154.693034 104.630650 2.000000
  endloop
 endfacet
 facet normal 0.233445 0.972370 -0.000000
  outer loop
   vertex 159.270510 103.531695 0.000000
   vertex 154.693034 104.630650 2.000000
   vertex 159.270510 103.531695 2.000000
  endloop
 endfacet
 facet normal 0.078459 0.996917 0.000000
  outer loop
   vertex 154.693034 104.630650 0.000000
   vertex 150.000000 105.000000 0.000000
   vertex 150.000000 105.000000 2.000000
  endloop
 endfacet
 facet normal 0.078459 0.996917 -0.000000
  outer loop
   vertex 154.693034 104.630650 0.000000
   vertex 150.000000 105.000000 2.000000
   vertex 154.693034 104.630650 2.000000
  endloop
 endfacet
 facet normal -0.078459 0.996917 0.000000
  outer loop
   vertex 150.000000 105.000000 0.000000
   vertex 145.306966 104.630650 0.000000
   vertex 145.306966 104.630650 2.000000
  endloop
 endfacet
 facet normal -0.078459 0.996917 0.000000
  outer loop
   vertex 150.000000 105.000000 0.000000
   vertex 145.306966 104.630650 2.000000
   vertex 150.000000 105.000000 2.000000
  endloop
 endfacet
 facet normal -0.233445 0.972370 0.000000
  outer loop
   vertex 145.306966 104.630650 0.000000
   vertex 140.729490 103.531695 0.000000
   vertex 140.729490 103.531695 2.000000
  endloop
 endfacet
 facet normal -0.233445 0.972370 0.000000
  outer loop
   vertex 145.306966 104.630650 0.000000
   vertex 140.729490 103.531695 2.000000
   vertex 145.306966 104.630650 2.000000
  endloop
 endfacet
 facet normal -0.382683 0.923880 0.000000
  outer loop
   vertex 140.729490 103.531695 0.000000
   vertex 136.380285 101.730196 0.000000
   vertex 136.380285 101.730196 2.000000
  endloop
 endfacet
 facet normal -0.382683 0.923880 0.000000
  outer loop
   vertex 140.729490 103.531695 0.000000
   vertex 136.380285 101.730196 2.000000
   vertex 140.729490 103.531695 2.000000
  endloop
 endfacet
 facet normal -0.522499 0.852640 0.000000
  outer loop
   vertex 136.380285 101.730196 0.000000
   vertex 132.366442 99.270510 0.000000
   vertex 132.366442 99.270510 2.000000
  endloop
 endfacet
 facet normal -0.522499 0.852640 0.000000
  outer loop
   vertex 136.380285 101.730196 0.000000
   vertex 132.366442 99.270510 2.000000
   vertex 136.380285 101.730196 2.000000
  endloop
 endfacet
 facet normal -0.649448 0.760406 0.000000
  outer loop
   vertex 132.366442 99.270510 0.000000
   vertex 128.786797 96.213203 0.000000
   vertex 128.786797 96.213203 2.000000
  endloop
 endfacet
 facet normal -0.649448 0.760406 0.000000
  outer loop
   vertex 132.366442 99.270510 0.000000
   vertex 128.786797 96.213203 2.000000
   vertex 132.366442 99.270510 2.000000
  endloop
 endfacet
 facet normal -0.760406 0.649448 0.000000
  outer loop
   vertex 128.786797 96.213203 0.000000
   vertex 125.729490 92.633558 0.000000
   vertex 125.729490 92.633558 2.000000
  endloop
 endfacet
 facet normal -0.760406 0.649448 0.000000
  outer loop
   vertex 128.786797 96.213203 0.000000
   vertex 125.729490 92.633558 2.000000
   vertex 128.786797 96.213203 2.000000
  endloop
 endfacet
 facet normal -0.852640 0.522499 0.000000
  outer loop
   vertex 125.729490 92.633558 0.000000
   vertex 123.269804 88.619715 0.000000
   vertex 123.269804 88.619715 2.000000
  endloop
 endfacet
 facet normal -0.852640 0.522499 0.000000
  outer loop
   vertex 125.729490 92.633558 0.000000
   vertex 123.269804 88.619715 2.000000
   vertex 125.729490 92.633558 2.000000
  endloop
 endfacet
 facet normal -0.923880 0.382683 0.000000
  outer loop
   vertex 123.269804 88.619715 0.000000
   vertex 121.468305 84.270510 0.000000
   vertex 121.468305 84.270510 2.000000
  endloop
 endfacet
 facet normal -0.923880 0.382683 0.000000
  outer loop
   vertex 123.269804 88.619715 0.000000
   vertex 121.468305 84.270510 2.000000
   vertex 123.269804 88.619715 2.000000
  endloop
 endfacet
 facet normal -0.972370 0.233445 0.000000
  outer loop
   vertex 121.468305 84.270510 0.000000
   vertex 120.369350 79.693034 0.000000
   vertex 120.369350 79.693034 2.000000
  endloop
 endfacet
 facet normal -0.972370 0.233445 0.000000
  outer loop
   vertex 121.468305 84.270510 0.000000
   vertex 120.369350 79.693034 2.000000
   vertex 121.468305 84.270510 2.000000
  endloop
 endfacet
 facet normal -0.996917 0.078459 0.000000
  outer loop
   vertex 120.369350 79.693034 0.000000
   vertex 120.000000 75.000000 0.000000
   vertex 120.000000 75.000000 2.000000
  endloop
 endfacet
 facet normal -0.996917 0.078459 0.000000
  outer loop
   vertex 120.369350 79.693034 0.000000
   vertex 120.000000 75.000000 2.000000
   vertex 120.369350 79.693034 2.000000
  endloop
 endfacet
 facet normal -0.996917 -0.078459 0.000000
  outer loop
   vertex 120.000000 75.000000 0.000000
   vertex 120.369350 70.306966 0.000000
   vertex 120.369350 70.306966 2.000000
  endloop
 endfacet
 facet normal -0.996917 -0.078459 0.000000
  outer loop
   vertex 120.000000 75.000000 0.000000
   vertex 120.369350 70.306966 2.000000
   vertex 120.000000 75.000000 2.000000
  endloop
 endfacet
 facet normal -0.972370 -0.233445 0.000000
  outer loop
   vertex 120.369350 70.306966 0.000000
   vertex 121.468305 65.729490 0.000000
   vertex 121.468305 65.729490 2.000000
  endloop
 endfacet
 facet normal -0.972370 -0.233445 0.000000
  outer loop
   vertex 120.369350 70.306966 0.000000
   vertex 121.468305 65.729490 2.000000
   vertex 120.369350 70.306966 2.000000
  endloop
 endfacet
 facet normal -0.923880 -0.382683 0.000000
  outer loop
   vertex 121.468305 65.729490 0.000000
   vertex 123.269804 61.380285 0.000000
   vertex 123.269804 61.380285 2.000000
  endloop
 endfacet
 facet normal -0.923880 -0.382683 0.000000
  outer loop
   vertex 121.468305 65.729490 0.000000
   vertex 123.269804 61.380285 2.000000
   vertex 121.468305 65.729490 2.000000
  endloop
 endfacet
 facet normal -0.852640 -0.522499 0.000000
  outer loop
   vertex 123.269804 61.380285 0.000000
   vertex 125.729490 57.366442 0.000000
   vertex 125.729490 57.366442 2.000000
  endloop
 endfacet
 facet normal -0.852640 -0.522499 0.000000
  outer loop
   vertex 123.269804 61.380285 0.000000
   vertex 125.729490 57.366442 2.000000
   vertex 123.269804 61.380285 2.000000
  endloop
 endfacet
 facet normal -0.760406 -0.649448 0.000000
  outer loop
   vertex 125.729490 57.366442 0.000000
   vertex 128.786797 53.786797 0.000000
   vertex 128.786797 53.786797 2.000000
  endloop
 endfacet
 facet normal -0.760406 -0.649448 0.000000
  outer loop
   vertex 125.729490 57.366442 0.000000
   vertex 128.786797 53.786797 2.000000
   vertex 125.729490 57.366442 2.000000
  endloop
 endfacet
 facet normal -0.649448 -0.760406 0.000000
  outer loop
   vertex 128.786797 53.786797 0.000000
   vertex 132.366442 50.729490 0.000000
   vertex 132.366442 50.729490 2.000000
  endloop
 endfacet
 facet normal -0.649448 -0.760406 0.000000
  outer loop
   vertex 128.786797 53.786797 0.000000
   vertex 132.366442 50.729490 2.000000
   vertex 128.786797 53.786797 2.000000
  endloop
 endfacet
 facet normal -0.522499 -0.852640 0.000000
  outer loop
   vertex 132.366442 50.729490 0.000000
   vertex 136.380285 48.269804 0.000000
   vertex 136.380285 48.269804 2.000000
  endloop
 endfacet
 facet normal -0.522499 -0.852640 0.000000
  outer loop
   vertex 132.366442 50.729490 0.000000
   vertex 136.380285 48.269804 2.000000
   vertex 132.366442 50.729490 2.000000
  endloop
 endfacet
 facet normal -0.382683 -0.923880 0.000000
  outer loop
   vertex 136.380285 48.269804 0.000000
   vertex 140.729490 46.468305 0.000000
   vertex 140.729490 46.468305 2.000000
  endloop
 endfacet
 facet normal -0.382683 -0.923880 0.000000
  outer loop
   vertex 136.380285 48.269804 0.000000
   vertex 140.729490 46.468305 2.000000
   vertex 136.380285 48.269804 2.000000
  endloop
 endfacet
 facet normal -0.233445 -0.972370 0.000000
  outer loop
   vertex 140.729490 46.468305 0.000000
   vertex 145.306966 45.369350 0.000000
   vertex 145.306966 45.369350 2.000000
  endloop
 endfacet
 facet normal -0.233445 -0.972370 0.000000
  outer loop
   vertex 140.729490 46.468305 0.000000
   vertex 145.306966 45.369350 2.000000
   vertex 140.729490 46.468305 2.000000
  endloop
 endfacet
 facet normal -0.078459 -0.996917 0.000000
  outer loop
   vertex 145.306966 45.369350 0.000000
   vertex 150.000000 45.000000 0.000000
   vertex 150.000000 45.000000 2.000000
  endloop
 endfacet
 facet normal -0.078459 -0.996917 0.000000
  outer loop
   vertex 145.306966 45.369350 0.000000
   vertex 150.000000 45.000000 2.000000
   vertex 145.306966 45.369350 2.000000
  endloop
 endfacet
 facet normal 0.078459 -0.996917 0.000000
  outer loop
   vertex 150.000000 45.000000 0.000000
   vertex 154.693034 45.369350 0.000000
   vertex 154.693034 45.369350 2.000000
  endloop
 endfacet
 facet normal 0.078459 -0.996917 0.000000
  outer loop
   vertex 150.000000 45.000000 0.000000
   vertex 154.693034 45.369350 2.000000
   vertex 150.000000 45.000000 2.000000
  endloop
 endfacet
 facet normal 0.233445 -0.972370 0.000000
  outer loop
   vertex 154.693034 45.369350 0.000000
   vertex 159.270510 46.468305 0.000000
   vertex 159.270510 46.468305 2.000000
  endloop
 endfacet
 facet normal 0.233445 -0.972370 0.000000
  outer loop
   vertex 154.693034 45.369350 0.000000
   vertex 159.270510 46.468305 2.000000
   vertex 154.693034 45.369350 2.000000
  endloop
 endfacet
 facet normal 0.382683 -0.923880 0.000000
  outer loop
   vertex 159.270510 46.468305 0.000000
   vertex 163.619715 48.269804 0.000000
   vertex 163.619715 48.269804 2.000000
  endloop
 endfacet
 facet normal 0.382683 -0.923880 0.000000
  outer loop
   vertex 159.270510 46.468305 0.000000
   vertex 163.619715 48.269804 2.000000
   vertex 159.270510 46.468305 2.000000
  endloop
 endfacet
 facet normal 0.522499 -0.852640 0.000000
  outer loop
   vertex 163.619715 48.269804 0.000000
   vertex 167.633558 50.729490 0.000000
   vertex 167.633558 50.729490 2.000000
  endloop
 endfacet
 facet normal 0.522499 -0.852640 0.000000
  outer loop
   vertex 163.619715 48.269804 0.000000
   vertex 167.633558 50.729490 2.000000
   vertex 163.619715 48.269804 2.000000
  endloop
 endfacet
 facet normal 0.649448 -0.760406 0.000000
  outer loop
   vertex 167.633558 50.729490 0.000000
   vertex 171.213203 53.786797 0.000000
   vertex 171.213203 53.786797 2.000000
  endloop
 endfacet
 facet normal 0.649448 -0.760406 0.000000
  outer loop
   vertex 167.633558 50.729490 0.000000
   vertex 171.213203 53.786797 2.000000
   vertex 167.633558 50.729490 2.000000
  endloop
 endfacet
 facet normal 0.760406 -0.649448 0.000000
  outer loop
   vertex 171.213203 53.786797 0.000000
   vertex 174.270510 57.366442 0.000000
   vertex 174.270510 57.366442 2.000000
  endloop
 endfacet
 facet normal 0.760406 -0.649448 0.000000
  outer loop
   vertex 171.213203 53.786797 0.000000
   vertex 174.270510 57.366442 2.000000
   vertex 171.213203 53.786797 2.000000
  endloop
 endfacet
 facet normal 0.852640 -0.522499 0.000000
  outer loop
   vertex 174.270510 57.366442 0.000000
   vertex 176.730196 61.380285 0.000000
   vertex 176.730196 61.380285 2.000000
  endloop
 endfacet
 facet normal 0.852640 -0.522499 0.000000
  outer loop
   vertex 174.270510 57.366442 0.000000
   vertex 176.730196 61.380285 2.000000
   vertex 174.270510 57.366442 2.000000
  endloop
 endfacet
 facet normal 0.923880 -0.382683 0.000000
  outer loop
   vertex 176.730196 61.380285 0.000000
   vertex 178.531695 65.729490 0.000000
   vertex 178.531695 65.729490 2.000000
  endloop
 endfacet
 facet normal 0.923880 -0.382683 0.000000
  outer loop
   vertex 176.730196 61.380285 0.000000
   vertex 178.531695 65.729490 2.000000
   vertex 176.730196 61.380285 2.000000
  endloop
 endfacet
 facet normal 0.972370 -0.233445 0.000000
  outer loop
   vertex 178.531695 65.729490 0.000000
   vertex 179.630650 70.306966 0.000000
   vertex 179.630650 70.306966 2.000000
  endloop
 endfacet
 facet normal 0.972370 -0.233445 0.000000
  outer loop
   vertex 178.531695 65.729490 0.000000
   vertex 179.630650 70.306966 2.000000
   vertex 178.531695 65.729490 2.000000
  endloop
 endfacet
 facet normal 0.996917 -0.078459 0.000000
  outer loop
   vertex 179.630650 70.306966 0.000000
   vertex 180.000000 75.000000 0.000000
   vertex 180.000000 75.000000 2.000000
  endloop
 endfacet
 facet normal 0.996917 -0.078459 0.000000
  outer loop
   vertex 179.630650 70.306966 0.000000
   vertex 180.000000 75.000000 2.000000
   vertex 179.630650 70.306966 2.000000
  endloop
 endfacet
 facet normal 0.000000 0.000000 1.000000
  outer loop
   vertex 150.000000 75.000000 2.000000
   vertex 180.000000 75.000000 2.000000
   vertex 179.630650 79.693034 2.000000
  endloop
 endfacet
 facet normal 0.000000 0.000000 1.000000
  outer loop
   vertex 150.000000 75.000000 2.000000
   vertex 179.630650 79.693034 2.000000
   vertex 178.531695 84.270510 2.000000
  endloop
 endfacet
 facet normal 0.000000 0.000000 1.000000
  outer loop
   vertex 150.000000 75.000000 2.000000
   vertex 178.531695 84.270510 2.000000
   vertex 176.730196 88.619715 2.000000
  endloop
 endfacet
 facet normal 0.000000 0.000000 1.000000
  outer loop
   vertex 150.000000 75.000000 2.000000
   vertex 176.730196 88.619715 2.000000
   vertex 174.270510 92.633558 2.000000
  endloop
 endfacet
 facet normal 0.000000 0.000000 1.000000
  outer loop
   vertex 150.000000 75.000000 2.000000
   vertex 174.270510 92.633558 2.000000
   vertex 171.213203 96.213203 2.000000
  endloop
 endfacet
 facet normal 0.000000 0.000000 1.000000
  outer loop
   vertex 150.000000 75.000000 2.000000
   vertex 171.213203 96.213203 2.000000
   vertex 167.633558 99.270510 2.000000
  endloop
 endfacet
 facet normal 0.000000 0.000000 1.000000
  outer loop
   vertex 150.000000 75.000000 2.000000
   vertex 167.633558 99.270510 2.000000
   vertex 163.619715 101.730196 2.000000
  endloop
 endfacet
 facet normal 0.000000 0.000000 1.000000
  outer loop
   vertex 150.000000 75.000000 2.000000
   vertex 163.619715 101.730196 2.000000
   vertex 159.270510 103.531695 2.000000
  endloop
 endfacet
 facet normal 0.000000 0.000000 1.000000
  outer loop
   vertex 150.000000 75.000000 2.000000
   vertex 159.270510 103.531695 2.000000
   vertex 154.693034 104.630650 2.000000
  endloop
 endfacet
 facet normal 0.000000 0.000000 1.000000
  outer loop
   vertex 150.000000 75.000000 2.000000
   vertex 154.693034 104.630650 2.000000
   vertex 150.000000 105.000000 2.000000
  endloop
 endfacet
 facet normal 0.000000 -0.000000 1.000000
  outer loop
   vertex 150.000000 75.000000 2.000000
   vertex 150.000000 105.000000 2.000000
   vertex 145.306966 104.630650 2.000000
  endloop
 endfacet
 facet normal 0.000000 0.000000 1.000000
  outer loop
   vertex 150.000000 75.000000 2.000000
   vertex 145.306966 104.630650 2.000000
   vertex 140.729490 103.531695 2.000000
  endloop
 endfacet
 facet normal 0.000000 0.000000 1.000000
  outer loop
   vertex 150.000000 75.000000 2.000000
   vertex 140.729490 103.531695 2.000000
   vertex 136.380285 101.730196 2.000000
  endloop
 endfacet
 facet normal 0.000000 0.000000 1.000000
  outer loop
   vertex 150.000000 75.000000 2.000000
   vertex 136.380285 101.730196 2.000000
   vertex 132.366442 99.270510 2.000000
  endloop
 endfacet
 facet normal 0.000000 0.000000 1.000000
  outer loop
   vertex 150.000000 75.000000 2.000000
   vertex 132.366442 99.270510 2.000000
   vertex 128.786797 96.213203 2.000000
  endloop
 endfacet
 facet normal 0.000000 0.000000 1.000000
  outer loop
   vertex 150.000000 75.000000 2.000000
   vertex 128.786797 96.213203 2.000000
   vertex 125.729490 92.633558 2.000000
  endloop
 endfacet
 facet normal 0.000000 0.000000 1.000000
  outer loop
   vertex 150.000000 75.000000 2.000000
   vertex 125.729490 92.633558 2.000000
   vertex 123.269804 88.619715 2.000000
  endloop
 endfacet
 facet normal 0.000000 0.000000 1.000000
  outer loop
   vertex 150.000000 75.000000 2.000000
   vertex 123.269804 88.619715 2.000000
   vertex 121.468305 84.270510 2.000000
  endloop
 endfacet
 facet normal 0.000000 0.000000 1.000000
  outer loop
   vertex 150.000000 75.000000 2.000000
   vertex 121.468305 84.270510 2.000000
   vertex 120.369350 79.693034 2.000000
  endloop
 endfacet
 facet normal 0.000000 0.000000 1.000000
  outer loop
   vertex 150.000000 75.000000 2.000000
   vertex 120.369350 79.693034 2.000000
   vertex 120.000000 75.000000 2.000000
  endloop
 endfacet
 facet normal 0.000000 0.000000 1.000000
  outer loop
   vertex 150.000000 75.000000 2.000000
   vertex 120.000000 75.000000 2.000000
   vertex 120.369350 70.306966 2.000000
  endloop
 endfacet
 facet normal 0.000000 0.000000 1.000000
  outer loop
   vertex 150.000000 75.000000 2.000000
   vertex 120.369350 70.306966 2.000000
   vertex 121.468305 65.729490 2.000000
  endloop
 endfacet
 facet normal 0.000000 0.000000 1.000000
  outer loop
   vertex 150.000000 75.000000 2.000000
   vertex 121.468305 65.729490 2.000000
   vertex 123.269804 61.380285 2.000000
  endloop
 endfacet
 facet normal 0.000000 0.000000 1.000000
  outer loop
   vertex 150.000000 75.000000 2.000000
   vertex 123.269804 61.380285 2.000000
   vertex 125.729490 57.366442 2.000000
  endloop
 endfacet
 facet normal 0.000000 0.000000 1.000000
  outer loop
   vertex 150.000000 75.000000 2.000000
   vertex 125.729490 57.366442 2.000000
   vertex 128.786797 53.786797 2.000000
  endloop
 endfacet
 facet normal 0.000000 0.000000 1.000000
  outer loop
   vertex 150.000000 75.000000 2.000000
   vertex 128.786797 53.786797 2.000000
   vertex 132.366442 50.729490 2.000000
  endloop
 endfacet
 facet normal 0.000000 0.000000 1.000000
  outer loop
   vertex 150.000000 75.000000 2.000000
   vertex 132.366442 50.729490 2.000000
   vertex 136.380285 48.269804 2.000000
  endloop
 endfacet
 facet normal 0.000000 0.000000 1.000000
  outer loop
   vertex 150.000000 75.000000 2.000000
   vertex 136.380285 48.269804 2.000000
   vertex 140.729490 46.468305 2.000000
  endloop
 endfacet
 facet normal 0.000000 0.000000 1.000000
  outer loop
   vertex 150.000000 75.000000 2.000000
   vertex 140.729490 46.468305 2.000000
   vertex 145.306966 45.369350 2.000000
  endloop
 endfacet
 facet normal 0.000000 0.000000 1.000000
  outer loop
   vertex 150.000000 75.000000 2.000000
   vertex 145.306966 45.369350 2.000000
   vertex 150.000000 45.000000 2.000000
  endloop
 endfacet
 facet normal 0.000000 0.000000 1.000000
  outer loop
   vertex 150.000000 75.000000 2.000000
   vertex 150.000000 45.000000 2.000000
   vertex 154.693034 45.369350 2.000000
  endloop
 endfacet
 facet normal 0.000000 0.000000 1.000000
  outer loop
   vertex 150.000000 75.000000 2.000000
   vertex 154.693034 45.369350 2.000000
   vertex 159.270510 46.468305 2.000000
  endloop
 endfacet
 facet normal 0.000000 0.000000 1.000000
  outer loop
   vertex 150.000000 75.000000 2.000000
   vertex 159.270510 46.468305 2.000000
   vertex 163.619715 48.269804 2.000000
  endloop
 endfacet
 facet normal 0.000000 0.000000 1.000000
  outer loop
   vertex 150.000000 75.000000 2.000000
   vertex 163.619715 48.269804 2.000000
   vertex 167.633558 50.729490 2.000000
  endloop
 endfacet
 facet normal 0.000000 0.000000 1.000000
  outer loop
   vertex 150.000000 75.000000 2.000000
   vertex 167.633558 50.729490 2.000000
   vertex 171.213203 53.786797 2.000000
  endloop
 endfacet
 facet normal 0.000000 0.000000 1.000000
  outer loop
   vertex 150.000000 75.000000 2.000000
   vertex 171.213203 53.786797 2.000000
   vertex 174.270510 57.366442 2.000000
  endloop
 endfacet
 facet normal 0.000000 0.000000 1.000000
  outer loop
   vertex 150.000000 75.000000 2.000000
   vertex 174.270510 57.366442 2.000000
   vertex 176.730196 61.380285 2.000000
  endloop
 endfacet
 facet normal 0.000000 0.000000 1.000000
  outer loop
   vertex 150.000000 75.000000 2.000000
   vertex 176.730196 61.380285 2.000000
   vertex 178.531695 65.729490 2.000000
  endloop
 endfacet
 facet normal 0.000000 0.000000 1.000000
  outer loop
   vertex 150.000000 75.000000 2.000000
   vertex 178.531695 65.729490 2.000000
   vertex 179.630650 70.306966 2.000000
  endloop
 endfacet
 facet normal 0.000000 0.000000 1.000000
  outer loop
   vertex 150.000000 75.000000 2.000000
   vertex 179.630650 70.306966 2.000000
   vertex 180.000000 75.000000 2.000000
  endloop
 endfacet
endsolid environment