solid environment
 facet normal 0.000000 0.000000 1.000000
  outer loop
   vertex 0.000000 0.000000 0.000000
   vertex 50.000000 0.000000 0.000000
   vertex 50.000000 50.000000 0.000000
  endloop
 endfacet
 facet normal 0.000000 0.000000 1.000000
  outer loop
   vertex 0.000000 0.000000 0.000000
   vertex 50.000000 50.000000 0.000000
   vertex 0.000000 50.000000 0.000000
  endloop
 endfacet
 facet normal 0.000000 0.000000 1.000000
  outer loop
   vertex 0.000000 0.000000 0.100000
   vertex 50.000000 0.000000 0.100000
   vertex 50.000000 50.000000 0.100000
  endloop
 endfacet
 facet normal 0.000000 0.000000 1.000000
  outer loop
   vertex 0.000000 0.000000 0.100000
   vertex 50.000000 50.000000 0.100000
   vertex 0.000000 50.000000 0.100000
  endloop
 endfacet
 facet normal 0.000000 -1.000000 0.000000
  outer loop
   vertex 0.000000 0.000000 0.000000
   vertex 50.000000 0.000000 0.000000
   vertex 50.000000 0.000000 0.100000
  endloop
 endfacet
 facet normal 0.000000 -1.000000 0.000000
  outer loop
   vertex 0.000000 0.000000 0.000000
   vertex 50.000000 0.000000 0.100000
   vertex 0.000000 0.000000 0.100000
  endloop
 endfacet
 facet normal 1.000000 0.000000 0.000000
  outer loop
   vertex 50.000000 0.000000 0.000000
   vertex 50.000000 50.000000 0.000000
   vertex 50.000000 50.000000 0.100000
  endloop
 endfacet
 facet normal 1.000000 0.000000 0.000000
  outer loop
   vertex 50.000000 0.000000 0.000000
   vertex 50.000000 50.000000 0.100000
   vertex 50.000000 0.000000 0.100000
  endloop
 endfacet
 facet normal 0.000000 1.000000 0.000000
  outer loop
   vertex 50.000000 50.000000 0.000000
   vertex 0.000000 50.000000 0.000000
   vertex 0.000000 50.000000 0.100000
  endloop
 endfacet
 facet normal 0.000000 1.000000 -0.000000
  outer loop
   vertex 50.000000 50.000000 0.000000
   vertex 0.000000 50.000000 0.100000
   vertex 50.000000 50.000000 0.100000
  endloop
 endfacet
 facet normal -1.000000 0.000000 0.000000
  outer loop
   vertex 0.000000 50.000000 0.000000
   vertex 0.000000 0.000000 0.000000
   vertex 0.000000 0.000000 0.100000
  endloop
 endfacet
 facet normal -1.000000 0.000000 0.000000
  outer loop
   vertex 0.000000 50.000000 0.000000
   vertex 0.000000 0.000000 0.100000
   vertex 0.000000 50.000000 0.100000
  endloop
 endfacet
 facet normal 0.000000 0.000000 1.000000
  outer loop
   vertex 7.500000 10.000000 0.000000
   vertex 22.500000 10.000000 0.000000
   vertex 22.500000 17.500000 0.000000
  endloop
 endfacet
 facet normal 0.000000 0.000000 1.000000
  outer loop
   vertex 7.500000 10.000000 0.000000
   vertex 22.500000 17.500000 0.000000
   vertex 7.500000 17.500000 0.000000
  endloop
 endfacet
 facet normal 0.000000 0.000000 1.000000
  outer loop
   vertex 7.500000 10.000000 2.000000
   vertex 22.500000 10.000000 2.000000
   vertex 22.500000 17.500000 2.000000
  endloop
 endfacet
 facet normal 0.000000 0.000000 1.000000
  outer loop
   vertex 7.500000 10.000000 2.000000
   vertex 22.500000 17.500000 2.000000
   vertex 7.500000 17.500000 2.000000
  endloop
 endfacet
 facet normal 0.000000 -1.000000 0.000000
  outer loop
   vertex 7.500000 10.000000 0.000000
   vertex 22.500000 10.000000 0.000000
   vertex 22.500000 10.000000 2.000000
  endloop
 endfacet
 facet normal 0.000000 -1.000000 0.000000
  outer loop
   vertex 7.500000 10.000000 0.000000
   vertex 22.500000 10.000000 2.000000
   vertex 7.500000 10.000000 2.000000
  endloop
 endfacet
 facet normal 1.000000 0.000000 0.000000
  outer loop
   vertex 22.500000 10.000000 0.000000
   vertex 22.500000 17.500000 0.000000
   vertex 22.500000 17.500000 2.000000
  endloop
 endfacet
 facet normal 1.000000 0.000000 0.000000
  outer loop
   vertex 22.500000 10.000000 0.000000
   vertex 22.500000 17.500000 2.000000
   vertex 22.500000 10.000000 2.000000
  endloop
 endfacet
 facet normal 0.000000 1.000000 0.000000
  outer loop
   vertex 22.500000 17.500000 0.000000
   vertex 7.500000 17.500000 0.000000
   vertex 7.500000 17.500000 2.000000
  endloop
 endfacet
 facet normal 0.000000 1.000000 -0.000000
  outer loop
   vertex 22.500000 17.500000 0.000000
   vertex 7.500000 17.500000 2.000000
   vertex 22.500000 17.500000 2.000000
  endloop
 endfacet
 facet normal -1.000000 0.000000 0.000000
  outer loop
   vertex 7.500000 17.500000 0.000000
   vertex 7.500000 10.000000 0.000000
   vertex 7.500000 10.000000 2.000000
  endloop
 endfacet
 facet normal -1.000000 0.000000 0.000000
  outer loop
   vertex 7.500000 17.500000 0.000000
   vertex 7.500000 10.000000 2.000000
   vertex 7.500000 17.500000 2.000000
  endloop
 endfacet
 facet normal 0.000000 0.000000 1.000000
  outer loop
   vertex 15.000000 27.500000 0.000000
   vertex 27.500000 27.500000 0.000000
   vertex 27.500000 37.500000 0.000000
  endloop
 endfacet
 facet normal 0.000000 0.000000 1.000000
  outer loop
   vertex 15.000000 27.500000 0.000000
   vertex 27.500000 37.500000 0.000000
   vertex 15.000000 37.500000 0.000000
  endloop
 endfacet
 facet normal 0.000000 0.000000 1.000000
  outer loop
   vertex 15.000000 27.500000 2.000000
   vertex 27.500000 27.500000 2.000000
   vertex 27.500000 37.500000 2.000000
  endloop
 endfacet
 facet normal 0.000000 0.000000 1.000000
  outer loop
   vertex 15.000000 27.500000 2.000000
   vertex 27.500000 37.500000 2.000000
   vertex 15.000000 37.500000 2.000000
  endloop
 endfacet
 facet normal 0.000000 -1.000000 0.000000
  outer loop
   vertex 15.000000 27.500000 0.000000
   vertex 27.500000 27.500000 0.000000
   vertex 27.500000 27.500000 2.000000
  endloop
 endfacet
 facet normal 0.000000 -1.000000 0.000000
  outer loop
   vertex 15.000000 27.500000 0.000000
   vertex 27.500000 27.500000 2.000000
   vertex 15.000000 27.500000 2.000000
  endloop
 endfacet
 facet normal 1.000000 0.000000 0.000000
  outer loop
   vertex 27.500000 27.500000 0.000000
   vertex 27.500000 37.500000 0.000000
   vertex 27.500000 37.500000 2.000000
  endloop
 endfacet
 facet normal 1.000000 0.000000 0.000000
  outer loop
   vertex 27.500000 27.500000 0.000000
   vertex 27.500000 37.500000 2.000000
   vertex 27.500000 27.500000 2.000000
  endloop
 endfacet
 facet normal 0.000000 1.000000 0.000000
  outer loop
   vertex 27.500000 37.500000 0.000000
   vertex 15.000000 37.500000 0.000000
   vertex 15.000000 37.500000 2.000000
  endloop
 endfacet
 facet normal 0.000000 1.000000 -0.000000
  outer loop
   vertex 27.500000 37.500000 0.000000
   vertex 15.000000 37.500000 2.000000
   vertex 27.500000 37.500000 2.000000
  endloop
 endfacet
 facet normal -1.000000 0.000000 0.000000
  outer loop
   vertex 15.000000 37.500000 0.000000
   vertex 15.000000 27.500000 0.000000
   vertex 15.000000 27.500000 2.000000
  endloop
 endfacet
 facet normal -1.000000 0.000000 0.000000
  outer loop
   vertex 15.000000 37.500000 0.000000
   vertex 15.000000 27.500000 2.000000
   vertex 15.000000 37.500000 2.000000
  endloop
 endfacet
 facet normal 0.000000 0.000000 1.000000
  outer loop
   vertex 32.500000 10.000000 0.000000
   vertex 42.500000 10.000000 0.000000
   vertex 42.500000 20.000000 0.000000
  endloop
 endfacet
 facet normal 0.000000 0.000000 1.000000
  outer loop
   vertex 32.500000 10.000000 0.000000
   vertex 42.500000 20.000000 0.000000
   vertex 32.500000 20.000000 0.000000
  endloop
 endfacet
 facet normal 0.000000 0.000000 1.000000
  outer loop
   vertex 32.500000 10.000000 2.000000
   vertex 42.500000 10.000000 2.000000
   vertex 42.500000 20.000000 2.000000
  endloop
 endfacet
 facet normal 0.000000 0.000000 1.000000
  outer loop
   vertex 32.500000 10.000000 2.000000
   vertex 42.500000 20.000000 2.000000
   vertex 32.500000 20.000000 2.000000
  endloop
 endfacet
 facet normal 0.000000 -1.000000 0.000000
  outer loop
   vertex 32.500000 10.000000 0.000000
   vertex 42.500000 10.000000 0.000000
   vertex 42.500000 10.000000 2.000000
  endloop
 endfacet
 facet normal 0.000000 -1.000000 0.000000
  outer loop
   vertex 32.500000 10.000000 0.000000
   vertex 42.500000 10.000000 2.000000
   vertex 32.500000 10.000000 2.000000
  endloop
 endfacet
 facet normal 1.000000 0.000000 0.000000
  outer loop
   vertex 42.500000 10.000000 0.000000
   vertex 42.500000 20.000000 0.000000
   vertex 42.500000 20.000000 2.000000
  endloop
 endfacet
 facet normal 1.000000 0.000000 0.000000
  outer loop
   vertex 42.500000 10.000000 0.000000
   vertex 42.500000 20.000000 2.000000
   vertex 42.500000 10.000000 2.000000
  endloop
 endfacet
 facet normal 0.000000 1.000000 0.000000
  outer loop
   vertex 42.500000 20.000000 0.000000
   vertex 32.500000 20.000000 0.000000
   vertex 32.500000 20.000000 2.000000
  endloop
 endfacet
 facet normal 0.000000 1.000000 -0.000000
  outer loop
   vertex 42.500000 20.000000 0.000000
   vertex 32.500000 20.000000 2.000000
   vertex 42.500000 20.000000 2.000000
  endloop
 endfacet
 facet normal -1.000000 0.000000 0.000000
  outer loop
   vertex 32.500000 20.000000 0.000000
   vertex 32.500000 10.000000 0.000000
   vertex 32.500000 10.000000 2.000000
  endloop
 endfacet
 facet normal -1.000000 0.000000 0.000000
  outer loop
   vertex 32.500000 20.000000 0.000000
   vertex 32.500000 10.000000 2.000000
   vertex 32.500000 20.000000 2.000000
  endloop
 endfacet
 facet normal 0.996917 0.078459 0.000000
  outer loop
   vertex 21.000000 37.500000 0.000000
   vertex 20.926130 38.438607 0.000000
   vertex 20.926130 38.438607 2.000000
  endloop
 endfacet
 facet normal 0.996917 0.078459 -0.000000
  outer loop
   vertex 21.000000 37.500000 0.000000
   vertex 20.926130 38.438607 2.000000
   vertex 21.000000 37.500000 2.000000
  endloop
 endfacet
 facet normal 0.972370 0.233445 0.000000
  outer loop
   vertex 20.926130 38.438607 0.000000
   vertex 20.706339 39.354102 0.000000
   vertex 20.706339 39.354102 2.000000
  endloop
 endfacet
 facet normal 0.972370 0.233445 -0.000000
  outer loop
   vertex 20.926130 38.438607 0.000000
   vertex 20.706339 39.354102 2.000000
   vertex 20.926130 38.438607 2.000000
  endloop
 endfacet
 facet normal 0.923880 0.382683 0.000000
  outer loop
   vertex 20.706339 39.354102 0.000000
   vertex 20.346039 40.223943 0.000000
   vertex 20.346039 40.223943 2.000000
  endloop
 endfacet
 facet normal 0.923880 0.382683 -0.000000
  outer loop
   vertex 20.706339 39.354102 0.000000
   vertex 20.346039 40.223943 2.000000
   vertex 20.706339 39.354102 2.000000
  endloop
 endfacet
 facet normal 0.852640 0.522499 0.000000
  outer loop
   vertex 20.346039 40.223943 0.000000
   vertex 19.854102 41.026712 0.000000
   vertex 19.854102 41.026712 2.000000
  endloop
 endfacet
 facet normal 0.852640 0.522499 -0.000000
  outer loop
   vertex 20.346039 40.223943 0.000000
   vertex 19.854102 41.026712 2.000000
   vertex 20.346039 40.223943 2.000000
  endloop
 endfacet
 facet normal 0.760406 0.649448 0.000000
  outer loop
   vertex 19.854102 41.026712 0.000000
   vertex 19.242641 41.742641 0.000000
   vertex 19.242641 41.742641 2.000000
  endloop
 endfacet
 facet normal 0.760406 0.649448 -0.000000
  outer loop
   vertex 19.854102 41.026712 0.000000
   vertex 19.242641 41.742641 2.000000
   vertex 19.854102 41.026712 2.000000
  endloop
 endfacet
 facet normal 0.649448 0.760406 0.000000
  outer loop
   vertex 19.242641 41.742641 0.000000
   vertex 18.526712 42.354102 0.000000
   vertex 18.526712 42.354102 2.000000
  endloop
 endfacet
 facet normal 0.649448 0.760406 -0.000000
  outer loop
   vertex 19.242641 41.742641 0.000000
   vertex 18.526712 42.354102 2.000000
   vertex 19.242641 41.742641 2.000000
  endloop
 endfacet
 facet normal 0.522499 0.852640 0.000000
  outer loop
   vertex 18.526712 42.354102 0.000000
   vertex 17.723943 42.846039 0.000000
   vertex 17.723943 42.846039 2.000000
  endloop
 endfacet
 facet normal 0.522499 0.852640 -0.000000
  outer loop
   vertex 18.526712 42.354102 0.000000
   vertex 17.723943 42.846039 2.000000
   vertex 18.526712 42.354102 2.000000
  endloop
 endfacet
 facet normal 0.382683 0.923880 0.000000
  outer loop
   vertex 17.723943 42.846039 0.000000
   vertex 16.854102 43.206339 0.000000
   vertex 16.854102 43.206339 2.000000
  endloop
 endfacet
 facet normal 0.382683 0.923880 -0.000000
  outer loop
   vertex 17.723943 42.846039 0.000000
   vertex 16.854102 43.206339 2.000000
   vertex 17.723943 42.846039 2.000000
  endloop
 endfacet
 facet normal 0.233445 0.972370 0.000000
  outer loop
   vertex 16.854102 43.206339 0.000000
   vertex 15.938607 43.426130 0.000000
   vertex 15.938607 43.426130 2.000000
  endloop
 endfacet
 facet normal 0.233445 0.972370 -0.000000
  outer loop
   vertex 16.854102 43.206339 0.000000
   vertex 15.938607 43.426130 2.000000
   vertex 16.854102 43.206339 2.000000
  endloop
 endfacet
 facet normal 0.078459 0.996917 0.000000
  outer loop
   vertex 15.938607 43.426130 0.000000
   vertex 15.000000 43.500000 0.000000
   vertex 15.000000 43.500000 2.000000
  endloop
 endfacet
 facet normal 0.078459 0.996917 -0.000000
  outer loop
   vertex 15.938607 43.426130 0.000000
   vertex 15.000000 43.500000 2.000000
   vertex 15.938607 43.426130 2.000000
  endloop
 endfacet
 facet normal -0.078459 0.996917 0.000000
  outer loop
   vertex 15.000000 43.500000 0.000000
   vertex 14.061393 43.426130 0.000000
   vertex 14.061393 43.426130 2.000000
  endloop
 endfacet
 facet normal -0.078459 0.996917 0.000000
  outer loop
   vertex 15.000000 43.500000 0.000000
   vertex 14.061393 43.426130 2.000000
   vertex 15.000000 43.500000 2.000000
  endloop
 endfacet
 facet normal -0.233445 0.972370 0.000000
  outer loop
   vertex 14.061393 43.426130 0.000000
   vertex 13.145898 43.206339 0.000000
   vertex 13.145898 43.206339 2.000000
  endloop
 endfacet
 facet normal -0.233445 0.972370 0.000000
  outer loop
   vertex 14.061393 43.426130 0.000000
   vertex 13.145898 43.206339 2.000000
   vertex 14.061393 43.426130 2.000000
  endloop
 endfacet
 facet normal -0.382683 0.923880 0.000000
  outer loop
   vertex 13.145898 43.206339 0.000000
   vertex 12.276057 42.846039 0.000000
   vertex 12.276057 42.846039 2.000000
  endloop
 endfacet
 facet normal -0.382683 0.923880 0.000000
  outer loop
   vertex 13.145898 43.206339 0.000000
   vertex 12.276057 42.846039 2.000000
   vertex 13.145898 43.206339 2.000000
  endloop
 endfacet
 facet normal -0.522499 0.852640 0.000000
  outer loop
   vertex 12.276057 42.846039 0.000000
   vertex 11.473288 42.354102 0.000000
   vertex 11.473288 42.354102 2.000000
  endloop
 endfacet
 facet normal -0.522499 0.852640 0.000000
  outer loop
   vertex 12.276057 42.846039 0.000000
   vertex 11.473288 42.354102 2.000000
   vertex 12.276057 42.846039 2.000000
  endloop
 endfacet
 facet normal -0.649448 0.760406 0.000000
  outer loop
   vertex 11.473288 42.354102 0.000000
   vertex 10.757359 41.742641 0.000000
   vertex 10.757359 41.742641 2.000000
  endloop
 endfacet
 facet normal -0.649448 0.760406 0.000000
  outer loop
   vertex 11.473288 42.354102 0.000000
   vertex 10.757359 41.742641 2.000000
   vertex 11.473288 42.354102 2.000000
  endloop
 endfacet
 facet normal -0.760406 0.649448 0.000000
  outer loop
   vertex 10.757359 41.742641 0.000000
   vertex 10.145898 41.026712 0.000000
   vertex 10.145898 41.026712 2.000000
  endloop
 endfacet
 facet normal -0.760406 0.649448 0.000000
  outer loop
   vertex 10.757359 41.742641 0.000000
   vertex 10.145898 41.026712 2.000000
   vertex 10.757359 41.742641 2.000000
  endloop
 endfacet
 facet normal -0.852640 0.522499 0.000000
  outer loop
   vertex 10.145898 41.026712 0.000000
   vertex 9.653961 40.223943 0.000000
   vertex 9.653961 40.223943 2.000000
  endloop
 endfacet
 facet normal -0.852640 0.522499 0.000000
  outer loop
   vertex 10.145898 41.026712 0.000000
   vertex 9.653961 40.223943 2.000000
   vertex 10.145898 41.026712 2.000000
  endloop
 endfacet
 facet normal -0.923880 0.382683 0.000000
  outer loop
   vertex 9.653961 40.223943 0.000000
   vertex 9.293661 39.354102 0.000000
   vertex 9.293661 39.354102 2.000000
  endloop
 endfacet
 facet normal -0.923880 0.382683 0.000000
  outer loop
   vertex 9.653961 40.223943 0.000000
   vertex 9.293661 39.354102 2.000000
   vertex 9.653961 40.223943 2.000000
  endloop
 endfacet
 facet normal -0.972370 0.233445 0.000000
  outer loop
   vertex 9.293661 39.354102 0.000000
   vertex 9.073870 38.438607 0.000000
   vertex 9.073870 38.438607 2.000000
  endloop
 endfacet
 facet normal -0.972370 0.233445 0.000000
  outer loop
   vertex 9.293661 39.354102 0.000000
   vertex 9.073870 38.438607 2.000000
   vertex 9.293661 39.354102 2.000000
  endloop
 endfacet
 facet normal -0.996917 0.078459 0.000000
  outer loop
   vertex 9.073870 38.438607 0.000000
   vertex 9.000000 37.500000 0.000000
   vertex 9.000000 37.500000 2.000000
  endloop
 endfacet
 facet normal -0.996917 0.078459 0.000000
  outer loop
   vertex 9.073870 38.438607 0.000000
   vertex 9.000000 37.500000 2.000000
   vertex 9.073870 38.438607 2.000000
  endloop
 endfacet
 facet normal -0.996917 -0.078459 0.000000
  outer loop
   vertex 9.000000 37.500000 0.000000
   vertex 9.073870 36.561393 0.000000
   vertex 9.073870 36.561393 2.000000
  endloop
 endfacet
 facet normal -0.996917 -0.078459 0.000000
  outer loop
   vertex 9.000000 37.500000 0.000000
   vertex 9.073870 36.561393 2.000000
   vertex 9.000000 37.500000 2.000000
  endloop
 endfacet
 facet normal -0.972370 -0.233445 0.000000
  outer loop
   vertex 9.073870 36.561393 0.000000
   vertex 9.293661 35.645898 0.000000
   vertex 9.293661 35.645898 2.000000
  endloop
 endfacet
 facet normal -0.972370 -0.233445 0.000000
  outer loop
   vertex 9.073870 36.561393 0.000000
   vertex 9.293661 35.645898 2.000000
   vertex 9.073870 36.561393 2.000000
  endloop
 endfacet
 facet normal -0.923880 -0.382683 0.000000
  outer loop
   vertex 9.293661 35.645898 0.000000
   vertex 9.653961 34.776057 0.000000
   vertex 9.653961 34.776057 2.000000
  endloop
 endfacet
 facet normal -0.923880 -0.382683 0.000000
  outer loop
   vertex 9.293661 35.645898 0.000000
   vertex 9.653961 34.776057 2.000000
   vertex 9.293661 35.645898 2.000000
  endloop
 endfacet
 facet normal -0.852640 -0.522499 0.000000
  outer loop
   vertex 9.653961 34.776057 0.000000
   vertex 10.145898 33.973288 0.000000
   vertex 10.145898 33.973288 2.000000
  endloop
 endfacet
 facet normal -0.852640 -0.522499 0.000000
  outer loop
   vertex 9.653961 34.776057 0.000000
   vertex 10.145898 33.973288 2.000000
   vertex 9.653961 34.776057 2.000000
  endloop
 endfacet
 facet normal -0.760406 -0.649448 0.000000
  outer loop
   vertex 10.145898 33.973288 0.000000
   vertex 10.757359 33.257359 0.000000
   vertex 10.757359 33.257359 2.000000
  endloop
 endfacet
 facet normal -0.760406 -0.649448 0.000000
  outer loop
   vertex 10.145898 33.973288 0.000000
   vertex 10.757359 33.257359 2.000000
   vertex 10.145898 33.973288 2.000000
  endloop
 endfacet
 facet normal -0.649448 -0.760406 0.000000
  outer loop
   vertex 10.757359 33.257359 0.000000
   vertex 11.473288 32.645898 0.000000
   vertex 11.473288 32.645898 2.000000
  endloop
 endfacet
 facet normal -0.649448 -0.760406 0.000000
  outer loop
   vertex 10.757359 33.257359 0.000000
   vertex 11.473288 32.645898 2.000000
   vertex 10.757359 33.257359 2.000000
  endloop
 endfacet
 facet normal -0.522499 -0.852640 0.000000
  outer loop
   vertex 11.473288 32.645898 0.000000
   vertex 12.276057 32.153961 0.000000
   vertex 12.276057 32.153961 2.000000
  endloop
 endfacet
 facet normal -0.522499 -0.852640 0.000000
  outer loop
   vertex 11.473288 32.645898 0.000000
   vertex 12.276057 32.153961 2.000000
   vertex 11.473288 32.645898 2.000000
  endloop
 endfacet
 facet normal -0.382683 -0.923880 0.000000
  outer loop
   vertex 12.276057 32.153961 0.000000
   vertex 13.145898 31.793661 0.000000
   vertex 13.145898 31.793661 2.000000
  endloop
 endfacet
 facet normal -0.382683 -0.923880 0.000000
  outer loop
   vertex 12.276057 32.153961 0.000000
   vertex 13.145898 31.793661 2.000000
   vertex 12.276057 32.153961 2.000000
  endloop
 endfacet
 facet normal -0.233445 -0.972370 0.000000
  outer loop
   vertex 13.145898 31.793661 0.000000
   vertex 14.061393 31.573870 0.000000
   vertex 14.061393 31.573870 2.000000
  endloop
 endfacet
 facet normal -0.233445 -0.972370 0.000000
  outer loop
   vertex 13.145898 31.793661 0.000000
   vertex 14.061393 31.573870 2.000000
   vertex 13.145898 31.793661 2.000000
  endloop
 endfacet
 facet normal -0.078459 -0.996917 0.000000
  outer loop
   vertex 14.061393 31.573870 0.000000
   vertex 15.000000 31.500000 0.000000
   vertex 15.000000 31.500000 2.000000
  endloop
 endfacet
 facet normal -0.078459 -0.996917 0.000000
  outer loop
   vertex 14.061393 31.573870 0.000000
   vertex 15.000000 31.500000 2.000000
   vertex 14.061393 31.573870 2.000000
  endloop
 endfacet
 facet normal 0.078459 -0.996917 0.000000
  outer loop
   vertex 15.000000 31.500000 0.000000
   vertex 15.938607 31.573870 0.000000
   vertex 15.938607 31.573870 2.000000
  endloop
 endfacet
 facet normal 0.078459 -0.996917 0.000000
  outer loop
   vertex 15.000000 31.500000 0.000000
   vertex 15.938607 31.573870 2.000000
   vertex 15.000000 31.500000 2.000000
  endloop
 endfacet
 facet normal 0.233445 -0.972370 0.000000
  outer loop
   vertex 15.938607 31.573870 0.000000
   vertex 16.854102 31.793661 0.000000
   vertex 16.854102 31.793661 2.000000
  endloop
 endfacet
 facet normal 0.233445 -0.972370 0.000000
  outer loop
   vertex 15.938607 31.573870 0.000000
   vertex 16.854102 31.793661 2.000000
   vertex 15.938607 31.573870 2.000000
  endloop
 endfacet
 facet normal 0.382683 -0.923880 0.000000
  outer loop
   vertex 16.854102 31.793661 0.000000
   vertex 17.723943 32.153961 0.000000
   vertex 17.723943 32.153961 2.000000
  endloop
 endfacet
 facet normal 0.382683 -0.923880 0.000000
  outer loop
   vertex 16.854102 31.793661 0.000000
   vertex 17.723943 32.153961 2.000000
   vertex 16.854102 31.793661 2.000000
  endloop
 endfacet
 facet normal 0.522499 -0.852640 0.000000
  outer loop
   vertex 17.723943 32.153961 0.000000
   vertex 18.526712 32.645898 0.000000
   vertex 18.526712 32.645898 2.000000
  endloop
 endfacet
 facet normal 0.522499 -0.852640 0.000000
  outer loop
   vertex 17.723943 32.153961 0.000000
   vertex 18.526712 32.645898 2.000000
   vertex 17.723943 32.153961 2.000000
  endloop
 endfacet
 facet normal 0.649448 -0.760406 0.000000
  outer loop
   vertex 18.526712 32.645898 0.000000
   vertex 19.242641 33.257359 0.000000
   vertex 19.242641 33.257359 2.000000
  endloop
 endfacet
 facet normal 0.649448 -0.760406 0.000000
  outer loop
   vertex 18.526712 32.645898 0.000000
   vertex 19.242641 33.257359 2.000000
   vertex 18.526712 32.645898 2.000000
  endloop
 endfacet
 facet normal 0.760406 -0.649448 0.000000
  outer loop
   vertex 19.242641 33.257359 0.000000
   vertex 19.854102 33.973288 0.000000
   vertex 19.854102 33.973288 2.000000
  endloop
 endfacet
 facet normal 0.760406 -0.649448 0.000000
  outer loop
   vertex 19.242641 33.257359 0.000000
   vertex 19.854102 33.973288 2.000000
   vertex 19.242641 33.257359 2.000000
  endloop
 endfacet
 facet normal 0.852640 -0.522499 0.000000
  outer loop
   vertex 19.854102 33.973288 0.000000
   vertex 20.346039 34.776057 0.000000
   vertex 20.346039 34.776057 2.000000
  endloop
 endfacet
 facet normal 0.852640 -0.522499 0.000000
  outer loop
   vertex 19.854102 33.973288 0.000000
   vertex 20.346039 34.776057 2.000000
   vertex 19.854102 33.973288 2.000000
  endloop
 endfacet
 facet normal 0.923880 -0.382683 0.000000
  outer loop
   vertex 20.346039 34.776057 0.000000
   vertex 20.706339 35.645898 0.000000
   vertex 20.706339 35.645898 2.000000
  endloop
 endfacet
 facet normal 0.923880 -0.382683 0.000000
  outer loop
   vertex 20.346039 34.776057 0.000000
   vertex 20.706339 35.645898 2.000000
   vertex 20.346039 34.776057 2.000000
  endloop
 endfacet
 facet normal 0.972370 -0.233445 0.000000
  outer loop
   vertex 20.706339 35.645898 0.000000
   vertex 20.926130 36.561393 0.000000
   vertex 20.926130 36.561393 2.000000
  endloop
 endfacet
 facet normal 0.972370 -0.233445 0.000000
  outer loop
   vertex 20.706339 35.645898 0.000000
   vertex 20.926130 36.561393 2.000000
   vertex 20.706339 35.645898 2.000000
  endloop
 endfacet
 facet normal 0.996917 -0.078459 0.000000
  outer loop
   vertex 20.926130 36.561393 0.000000
   vertex 21.000000 37.500000 0.000000
   vertex 21.000000 37.500000 2.000000
  endloop
 endfacet
 facet normal 0.996917 -0.078459 0.000000
  outer loop
   vertex 20.926130 36.561393 0.000000
   vertex 21.000000 37.500000 2.000000
   vertex 20.926130 36.561393 2.000000
  endloop
 endfacet
 facet normal 0.000000 0.000000 1.000000
  outer loop
   vertex 15.000000 37.500000 2.000000
   vertex 21.000000 37.500000 2.000000
   vertex 20.926130 38.438607 2.000000
  endloop
 endfacet
 facet normal 0.000000 0.000000 1.000000
  outer loop
   vertex 15.000000 37.500000 2.000000
   vertex 20.926130 38.438607 2.000000
   vertex 20.706339 39.354102 2.000000
  endloop
 endfacet
 facet normal 0.000000 0.000000 1.000000
  outer loop
   vertex 15.000000 37.500000 2.000000
   vertex 20.706339 39.354102 2.000000
   vertex 20.346039 40.223943 2.000000
  endloop
 endfacet
 facet normal 0.000000 0.000000 1.000000
  outer loop
   vertex 15.000000 37.500000 2.000000
   vertex 20.346039 40.223943 2.000000
   vertex 19.854102 41.026712 2.000000
  endloop
 endfacet
 facet normal 0.000000 0.000000 1.000000
  outer loop
   vertex 15.000000 37.500000 2.000000
   vertex 19.854102 41.026712 2.000000
   vertex 19.242641 41.742641 2.000000
  endloop
 endfacet
 facet normal 0.000000 0.000000 1.000000
  outer loop
   vertex 15.000000 37.500000 2.000000
   vertex 19.242641 41.742641 2.000000
   vertex 18.526712 42.354102 2.000000
  endloop
 endfacet
 facet normal 0.000000 0.000000 1.000000
  outer loop
   vertex 15.000000 37.500000 2.000000
   vertex 18.526712 42.354102 2.000000
   vertex 17.723943 42.846039 2.000000
  endloop
 endfacet
 facet normal 0.000000 0.000000 1.000000
  outer loop
   vertex 15.000000 37.500000 2.000000
   vertex 17.723943 42.846039 2.000000
   vertex 16.854102 43.206339 2.000000
  endloop
 endfacet
 facet normal 0.000000 0.000000 1.000000
  outer loop
   vertex 15.000000 37.500000 2.000000
   vertex 16.854102 43.206339 2.000000
   vertex 15.938607 43.426130 2.000000
  endloop
 endfacet
 facet normal 0.000000 0.000000 1.000000
  outer loop
   vertex 15.000000 37.500000 2.000000
   vertex 15.938607 43.426130 2.000000
   vertex 15.000000 43.500000 2.000000
  endloop
 endfacet
 facet normal 0.000000 -0.000000 1.000000
  outer loop
   vertex 15.000000 37.500000 2.000000
   vertex 15.000000 43.500000 2.000000
   vertex 14.061393 43.426130 2.000000
  endloop
 endfacet
 facet normal 0.000000 0.000000 1.000000
  outer loop
   vertex 15.000000 37.500000 2.000000
   vertex 14.061393 43.426130 2.000000
   vertex 13.145898 43.206339 2.000000
  endloop
 endfacet
 facet normal 0.000000 0.000000 1.000000
  outer loop
   vertex 15.000000 37.500000 2.000000
   vertex 13.145898 43.206339 2.000000
   vertex 12.276057 42.846039 2.000000
  endloop
 endfacet
 facet normal 0.000000 0.000000 1.000000
  outer loop
   vertex 15.000000 37.500000 2.000000
   vertex 12.276057 42.846039 2.000000
   vertex 11.473288 42.354102 2.000000
  endloop
 endfacet
 facet normal 0.000000 0.000000 1.000000
  outer loop
   vertex 15.000000 37.500000 2.000000
   vertex 11.473288 42.354102 2.000000
   vertex 10.757359 41.742641 2.000000
  endloop
 endfacet
 facet normal 0.000000 0.000000 1.000000
  outer loop
   vertex 15.000000 37.500000 2.000000
   vertex 10.757359 41.742641 2.000000
   vertex 10.145898 41.026712 2.000000
  endloop
 endfacet
 facet normal 0.000000 0.000000 1.000000
  outer loop
   vertex 15.000000 37.500000 2.000000
   vertex 10.145898 41.026712 2.000000
   vertex 9.653961 40.223943 2.000000
  endloop
 endfacet
 facet normal 0.000000 0.000000 1.000000
  outer loop
   vertex 15.000000 37.500000 2.000000
   vertex 9.653961 40.223943 2.000000
   vertex 9.293661 39.354102 2.000000
  endloop
 endfacet
 facet normal 0.000000 0.000000 1.000000
  outer loop
   vertex 15.000000 37.500000 2.000000
   vertex 9.293661 39.354102 2.000000
   vertex 9.073870 38.438607 2.000000
  endloop
 endfacet
 facet normal 0.000000 0.000000 1.000000
  outer loop
   vertex 15.000000 37.500000 2.000000
   vertex 9.073870 38.438607 2.000000
   vertex 9.000000 37.500000 2.000000
  endloop
 endfacet
 facet normal 0.000000 0.000000 1.000000
  outer loop
   vertex 15.000000 37.500000 2.000000
   vertex 9.000000 37.500000 2.000000
   vertex 9.073870 36.561393 2.000000
  endloop
 endfacet
 facet normal 0.000000 0.000000 1.000000
  outer loop
   vertex 15.000000 37.500000 2.000000
   vertex 9.073870 36.561393 2.000000
   vertex 9.293661 35.645898 2.000000
  endloop
 endfacet
 facet normal 0.000000 0.000000 1.000000
  outer loop
   vertex 15.000000 37.500000 2.000000
   vertex 9.293661 35.645898 2.000000
   vertex 9.653961 34.776057 2.000000
  endloop
 endfacet
 facet normal 0.000000 0.000000 1.000000
  outer loop
   vertex 15.000000 37.500000 2.000000
   vertex 9.653961 34.776057 2.000000
   vertex 10.145898 33.973288 2.000000
  endloop
 endfacet
 facet normal 0.000000 0.000000 1.000000
  outer loop
   vertex 15.000000 37.500000 2.000000
   vertex 10.145898 33.973288 2.000000
   vertex 10.757359 33.257359 2.000000
  endloop
 endfacet
 facet normal 0.000000 0.000000 1.000000
  outer loop
   vertex 15.000000 37.500000 2.000000
   vertex 10.757359 33.257359 2.000000
   vertex 11.473288 32.645898 2.000000
  endloop
 endfacet
 facet normal 0.000000 0.000000 1.000000
  outer loop
   vertex 15.000000 37.500000 2.000000
   vertex 11.473288 32.645898 2.000000
   vertex 12.276057 32.153961 2.000000
  endloop
 endfacet
 facet normal 0.000000 0.000000 1.000000
  outer loop
   vertex 15.000000 37.500000 2.000000
   vertex 12.276057 32.153961 2.000000
   vertex 13.145898 31.793661 2.000000
  endloop
 endfacet
 facet normal 0.000000 0.000000 1.000000
  outer loop
   vertex 15.000000 37.500000 2.000000
   vertex 13.145898 31.793661 2.000000
   vertex 14.061393 31.573870 2.000000
  endloop
 endfacet
 facet normal 0.000000 0.000000 1.000000
  outer loop
   vertex 15.000000 37.500000 2.000000
   vertex 14.061393 31.573870 2.000000
   vertex 15.000000 31.500000 2.000000
  endloop
 endfacet
 facet normal 0.000000 0.000000 1.000000
  outer loop
   vertex 15.000000 37.500000 2.000000
   vertex 15.000000 31.500000 2.000000
   vertex 15.938607 31.573870 2.000000
  endloop
 endfacet
 facet normal 0.000000 0.000000 1.000000
  outer loop
   vertex 15.000000 37.500000 2.000000
   vertex 15.938607 31.573870 2.000000
   vertex 16.854102 31.793661 2.000000
  endloop
 endfacet
 facet normal 0.000000 0.000000 1.000000
  outer loop
   vertex 15.000000 37.500000 2.000000
   vertex 16.854102 31.793661 2.000000
   vertex 17.723943 32.153961 2.000000
  endloop
 endfacet
 facet normal 0.000000 0.000000 1.000000
  outer loop
   vertex 15.000000 37.500000 2.000000
   vertex 17.723943 32.153961 2.000000
   vertex 18.526712 32.645898 2.000000
  endloop
 endfacet
 facet normal 0.000000 0.000000 1.000000
  outer loop
   vertex 15.000000 37.500000 2.000000
   vertex 18.526712 32.645898 2.000000
   vertex 19.242641 33.257359 2.000000
  endloop
 endfacet
 facet normal 0.000000 0.000000 1.000000
  outer loop
   vertex 15.000000 37.500000 2.000000
   vertex 19.242641 33.257359 2.000000
   vertex 19.854102 33.973288 2.000000
  endloop
 endfacet
 facet normal 0.000000 0.000000 1.000000
  outer loop
   vertex 15.000000 37.500000 2.000000
   vertex 19.854102 33.973288 2.000000
   vertex 20.346039 34.776057 2.000000
  endloop
 endfacet
 facet normal 0.000000 0.000000 1.000000
  outer loop
   vertex 15.000000 37.500000 2.000000
   vertex 20.346039 34.776057 2.000000
   vertex 20.706339 35.645898 2.000000
  endloop
 endfacet
 facet normal 0.000000 0.000000 1.000000
  outer loop
   vertex 15.000000 37.500000 2.000000
   vertex 20.706339 35.645898 2.000000
   vertex 20.926130 36.561393 2.000000
  endloop
 endfacet
 facet normal -0.000000 0.000000 1.000000
  outer loop
   vertex 15.000000 37.500000 2.000000
   vertex 20.926130 36.561393 2.000000
   vertex 21.000000 37.500000 2.000000
  endloop
 endfacet
 facet normal 0.996917 0.078459 0.000000
  outer loop
   vertex 40.000000 30.000000 0.000000
   vertex 39.938442 30.782172 0.000000
   vertex 39.938442 30.782172 2.000000
  endloop
 endfacet
 facet normal 0.996917 0.078459 -0.000000
  outer loop
   vertex 40.000000 30.000000 0.000000
   vertex 39.938442 30.782172 2.000000
   vertex 40.000000 30.000000 2.000000
  endloop
 endfacet
 facet normal 0.972370 0.233445 0.000000
  outer loop
   vertex 39.938442 30.782172 0.000000
   vertex 39.755283 31.545085 0.000000
   vertex 39.755283 31.545085 2.000000
  endloop
 endfacet
 facet normal 0.972370 0.233445 -0.000000
  outer loop
   vertex 39.938442 30.782172 0.000000
   vertex 39.755283 31.545085 2.000000
   vertex 39.938442 30.782172 2.000000
  endloop
 endfacet
 facet normal 0.923880 0.382683 0.000000
  outer loop
   vertex 39.755283 31.545085 0.000000
   vertex 39.455033 32.269952 0.000000
   vertex 39.455033 32.269952 2.000000
  endloop
 endfacet
 facet normal 0.923880 0.382683 -0.000000
  outer loop
   vertex 39.755283 31.545085 0.000000
   vertex 39.455033 32.269952 2.000000
   vertex 39.755283 31.545085 2.000000
  endloop
 endfacet
 facet normal 0.852640 0.522499 0.000000
  outer loop
   vertex 39.455033 32.269952 0.000000
   vertex 39.045085 32.938926 0.000000
   vertex 39.045085 32.938926 2.000000
  endloop
 endfacet
 facet normal 0.852640 0.522499 -0.000000
  outer loop
   vertex 39.455033 32.269952 0.000000
   vertex 39.045085 32.938926 2.000000
   vertex 39.455033 32.269952 2.000000
  endloop
 endfacet
 facet normal 0.760406 0.649448 0.000000
  outer loop
   vertex 39.045085 32.938926 0.000000
   vertex 38.535534 33.535534 0.000000
   vertex 38.535534 33.535534 2.000000
  endloop
 endfacet
 facet normal 0.760406 0.649448 -0.000000
  outer loop
   vertex 39.045085 32.938926 0.000000
   vertex 38.535534 33.535534 2.000000
   vertex 39.045085 32.938926 2.000000
  endloop
 endfacet
 facet normal 0.649448 0.760406 0.000000
  outer loop
   vertex 38.535534 33.535534 0.000000
   vertex 37.938926 34.045085 0.000000
   vertex 37.938926 34.045085 2.000000
  endloop
 endfacet
 facet normal 0.649448 0.760406 -0.000000
  outer loop
   vertex 38.535534 33.535534 0.000000
   vertex 37.938926 34.045085 2.000000
   vertex 38.535534 33.535534 2.000000
  endloop
 endfacet
 facet normal 0.522499 0.852640 0.000000
  outer loop
   vertex 37.938926 34.045085 0.000000
   vertex 37.269952 34.455033 0.000000
   vertex 37.269952 34.455033 2.000000
  endloop
 endfacet
 facet normal 0.522499 0.852640 -0.000000
  outer loop
   vertex 37.938926 34.045085 0.000000
   vertex 37.269952 34.455033 2.000000
   vertex 37.938926 34.045085 2.000000
  endloop
 endfacet
 facet normal 0.382683 0.923880 0.000000
  outer loop
   vertex 37.269952 34.455033 0.000000
   vertex 36.545085 34.755283 0.000000
   vertex 36.545085 34.755283 2.000000
  endloop
 endfacet
 facet normal 0.382683 0.923880 -0.000000
  outer loop
   vertex 37.269952 34.455033 0.000000
   vertex 36.545085 34.755283 2.000000
   vertex 37.269952 34.455033 2.000000
  endloop
 endfacet
 facet normal 0.233445 0.972370 0.000000
  outer loop
   vertex 36.545085 34.755283 0.000000
   vertex 35.782172 34.938442 0.000000
   vertex 35.782172 34.938442 2.000000
  endloop
 endfacet
 facet normal 0.233445 0.972370 -0.000000
  outer loop
   vertex 36.545085 34.755283 0.000000
   vertex 35.782172 34.938442 2.000000
   vertex 36.545085 34.755283 2.000000
  endloop
 endfacet
 facet normal 0.078459 0.996917 0.000000
  outer loop
   vertex 35.782172 34.938442 0.000000
   vertex 35.000000 35.000000 0.000000
   vertex 35.000000 35.000000 2.000000
  endloop
 endfacet
 facet normal 0.078459 0.996917 -0.000000
  outer loop
   vertex 35.782172 34.938442 0.000000
   vertex 35.000000 35.000000 2.000000
   vertex 35.782172 34.938442 2.000000
  endloop
 endfacet
 facet normal -0.078459 0.996917 0.000000
  outer loop
   vertex 35.000000 35.000000 0.000000
   vertex 34.217828 34.938442 0.000000
   vertex 34.217828 34.938442 2.000000
  endloop
 endfacet
 facet normal -0.078459 0.996917 0.000000
  outer loop
   vertex 35.000000 35.000000 0.000000
   vertex 34.217828 34.938442 2.000000
   vertex 35.000000 35.000000 2.000000
  endloop
 endfacet
 facet normal -0.233445 0.972370 0.000000
  outer loop
   vertex 34.217828 34.938442 0.000000
   vertex 33.454915 34.755283 0.000000
   vertex 33.454915 34.755283 2.000000
  endloop
 endfacet
 facet normal -0.233445 0.972370 0.000000
  outer loop
   vertex 34.217828 34.938442 0.000000
   vertex 33.454915 34.755283 2.000000
   vertex 34.217828 34.938442 2.000000
  endloop
 endfacet
 facet normal -0.382683 0.923880 0.000000
  outer loop
   vertex 33.454915 34.755283 0.000000
   vertex 32.730048 34.455033 0.000000
   vertex 32.730048 34.455033 2.000000
  endloop
 endfacet
 facet normal -0.382683 0.923880 0.000000
  outer loop
   vertex 33.454915 34.755283 0.000000
   vertex 32.730048 34.455033 2.000000
   vertex 33.454915 34.755283 2.000000
  endloop
 endfacet
 facet normal -0.522499 0.852640 0.000000
  outer loop
   vertex 32.730048 34.455033 0.000000
   vertex 32.061074 34.045085 0.000000
   vertex 32.061074 34.045085 2.000000
  endloop
 endfacet
 facet normal -0.522499 0.852640 0.000000
  outer loop
   vertex 32.730048 34.455033 0.000000
   vertex 32.061074 34.045085 2.000000
   vertex 32.730048 34.455033 2.000000
  endloop
 endfacet
 facet normal -0.649448 0.760406 0.000000
  outer loop
   vertex 32.061074 34.045085 0.000000
   vertex 31.464466 33.535534 0.000000
   vertex 31.464466 33.535534 2.000000
  endloop
 endfacet
 facet normal -0.649448 0.760406 0.000000
  outer loop
   vertex 32.061074 34.045085 0.000000
   vertex 31.464466 33.535534 2.000000
   vertex 32.061074 34.045085 2.000000
  endloop
 endfacet
 facet normal -0.760406 0.649448 0.000000
  outer loop
   vertex 31.464466 33.535534 0.000000
   vertex 30.954915 32.938926 0.000000
   vertex 30.954915 32.938926 2.000000
  endloop
 endfacet
 facet normal -0.760406 0.649448 0.000000
  outer loop
   vertex 31.464466 33.535534 0.000000
   vertex 30.954915 32.938926 2.000000
   vertex 31.464466 33.535534 2.000000
  endloop
 endfacet
 facet normal -0.852640 0.522499 0.000000
  outer loop
   vertex 30.954915 32.938926 0.000000
   vertex 30.544967 32.269952 0.000000
   vertex 30.544967 32.269952 2.000000
  endloop
 endfacet
 facet normal -0.852640 0.522499 0.000000
  outer loop
   vertex 30.954915 32.938926 0.000000
   vertex 30.544967 32.269952 2.000000
   vertex 30.954915 32.938926 2.000000
  endloop
 endfacet
 facet normal -0.923880 0.382683 0.000000
  outer loop
   vertex 30.544967 32.269952 0.000000
   vertex 30.244717 31.545085 0.000000
   vertex 30.244717 31.545085 2.000000
  endloop
 endfacet
 facet normal -0.923880 0.382683 0.000000
  outer loop
   vertex 30.544967 32.269952 0.000000
   vertex 30.244717 31.545085 2.000000
   vertex 30.544967 32.269952 2.000000
  endloop
 endfacet
 facet normal -0.972370 0.233445 0.000000
  outer loop
   vertex 30.244717 31.545085 0.000000
   vertex 30.061558 30.782172 0.000000
   vertex 30.061558 30.782172 2.000000
  endloop
 endfacet
 facet normal -0.972370 0.233445 0.000000
  outer loop
   vertex 30.244717 31.545085 0.000000
   vertex 30.061558 30.782172 2.000000
   vertex 30.244717 31.545085 2.000000
  endloop
 endfacet
 facet normal -0.996917 0.078459 0.000000
  outer loop
   vertex 30.061558 30.782172 0.000000
   vertex 30.000000 30.000000 0.000000
   vertex 30.000000 30.000000 2.000000
  endloop
 endfacet
 facet normal -0.996917 0.078459 0.000000
  outer loop
   vertex 30.061558 30.782172 0.000000
   vertex 30.000000 30.000000 2.000000
   vertex 30.061558 30.782172 2.000000
  endloop
 endfacet
 facet normal -0.996917 -0.078459 0.000000
  outer loop
   vertex 30.000000 30.000000 0.000000
   vertex 30.061558 29.217828 0.000000
   vertex 30.061558 29.217828 2.000000
  endloop
 endfacet
 facet normal -0.996917 -0.078459 0.000000
  outer loop
   vertex 30.000000 30.000000 0.000000
   vertex 30.061558 29.217828 2.000000
   vertex 30.000000 30.000000 2.000000
  endloop
 endfacet
 facet normal -0.972370 -0.233445 0.000000
  outer loop
   vertex 30.061558 29.217828 0.000000
   vertex 30.244717 28.454915 0.000000
   vertex 30.244717 28.454915 2.000000
  endloop
 endfacet
 facet normal -0.972370 -0.233445 0.000000
  outer loop
   vertex 30.061558 29.217828 0.000000
   vertex 30.244717 28.454915 2.000000
   vertex 30.061558 29.217828 2.000000
  endloop
 endfacet
 facet normal -0.923880 -0.382683 0.000000
  outer loop
   vertex 30.244717 28.454915 0.000000
   vertex 30.544967 27.730048 0.000000
   vertex 30.544967 27.730048 2.000000
  endloop
 endfacet
 facet normal -0.923880 -0.382683 0.000000
  outer loop
   vertex 30.244717 28.454915 0.000000
   vertex 30.544967 27.730048 2.000000
   vertex 30.244717 28.454915 2.000000
  endloop
 endfacet
 facet normal -0.852640 -0.522499 0.000000
  outer loop
   vertex 30.544967 27.730048 0.000000
   vertex 30.954915 27.061074 0.000000
   vertex 30.954915 27.061074 2.000000
  endloop
 endfacet
 facet normal -0.852640 -0.522499 0.000000
  outer loop
   vertex 30.544967 27.730048 0.000000
   vertex 30.954915 27.061074 2.000000
   vertex 30.544967 27.730048 2.000000
  endloop
 endfacet
 facet normal -0.760406 -0.649448 0.000000
  outer loop
   vertex 30.954915 27.061074 0.000000
   vertex 31.464466 26.464466 0.000000
   vertex 31.464466 26.464466 2.000000
  endloop
 endfacet
 facet normal -0.760406 -0.649448 0.000000
  outer loop
   vertex 30.954915 27.061074 0.000000
   vertex 31.464466 26.464466 2.000000
   vertex 30.954915 27.061074 2.000000
  endloop
 endfacet
 facet normal -0.649448 -0.760406 0.000000
  outer loop
   vertex 31.464466 26.464466 0.000000
   vertex 32.061074 25.954915 0.000000
   vertex 32.061074 25.954915 2.000000
  endloop
 endfacet
 facet normal -0.649448 -0.760406 0.000000
  outer loop
   vertex 31.464466 26.464466 0.000000
   vertex 32.061074 25.954915 2.000000
   vertex 31.464466 26.464466 2.000000
  endloop
 endfacet
 facet normal -0.522499 -0.852640 0.000000
  outer loop
   vertex 32.061074 25.954915 0.000000
   vertex 32.730048 25.544967 0.000000
   vertex 32.730048 25.544967 2.000000
  endloop
 endfacet
 facet normal -0.522499 -0.852640 0.000000
  outer loop
   vertex 32.061074 25.954915 0.000000
   vertex 32.730048 25.544967 2.000000
   vertex 32.061074 25.954915 2.000000
  endloop
 endfacet
 facet normal -0.382683 -0.923880 0.000000
  outer loop
   vertex 32.730048 25.544967 0.000000
   vertex 33.454915 25.244717 0.000000
   vertex 33.454915 25.244717 2.000000
  endloop
 endfacet
 facet normal -0.382683 -0.923880 0.000000
  outer loop
   vertex 32.730048 25.544967 0.000000
   vertex 33.454915 25.244717 2.000000
   vertex 32.730048 25.544967 2.000000
  endloop
 endfacet
 facet normal -0.233445 -0.972370 0.000000
  outer loop
   vertex 33.454915 25.244717 0.000000
   vertex 34.217828 25.061558 0.000000
   vertex 34.217828 25.061558 2.000000
  endloop
 endfacet
 facet normal -0.233445 -0.972370 0.000000
  outer loop
   vertex 33.454915 25.244717 0.000000
   vertex 34.217828 25.061558 2.000000
   vertex 33.454915 25.244717 2.000000
  endloop
 endfacet
 facet normal -0.078459 -0.996917 0.000000
  outer loop
   vertex 34.217828 25.061558 0.000000
   vertex 35.000000 25.000000 0.000000
   vertex 35.000000 25.000000 2.000000
  endloop
 endfacet
 facet normal -0.078459 -0.996917 0.000000
  outer loop
   vertex 34.217828 25.061558 0.000000
   vertex 35.000000 25.000000 2.000000
   vertex 34.217828 25.061558 2.000000
  endloop
 endfacet
 facet normal 0.078459 -0.996917 0.000000
  outer loop
   vertex 35.000000 25.000000 0.000000
   vertex 35.782172 25.061558 0.000000
   vertex 35.782172 25.061558 2.000000
  endloop
 endfacet
 facet normal 0.078459 -0.996917 0.000000
  outer loop
   vertex 35.000000 25.000000 0.000000
   vertex 35.782172 25.061558 2.000000
   vertex 35.000000 25.000000 2.000000
  endloop
 endfacet
 facet normal 0.233445 -0.972370 0.000000
  outer loop
   vertex 35.782172 25.061558 0.000000
   vertex 36.545085 25.244717 0.000000
   vertex 36.545085 25.244717 2.000000
  endloop
 endfacet
 facet normal 0.233445 -0.972370 0.000000
  outer loop
   vertex 35.782172 25.061558 0.000000
   vertex 36.545085 25.244717 2.000000
   vertex 35.782172 25.061558 2.000000
  endloop
 endfacet
 facet normal 0.382683 -0.923880 0.000000
  outer loop
   vertex 36.545085 25.244717 0.000000
   vertex 37.269952 25.544967 0.000000
   vertex 37.269952 25.544967 2.000000
  endloop
 endfacet
 facet normal 0.382683 -0.923880 0.000000
  outer loop
   vertex 36.545085 25.244717 0.000000
   vertex 37.269952 25.544967 2.000000
   vertex 36.545085 25.244717 2.000000
  endloop
 endfacet
 facet normal 0.522499 -0.852640 0.000000
  outer loop
   vertex 37.269952 25.544967 0.000000
   vertex 37.938926 25.954915 0.000000
   vertex 37.938926 25.954915 2.000000
  endloop
 endfacet
 facet normal 0.522499 -0.852640 0.000000
  outer loop
   vertex 37.269952 25.544967 0.000000
   vertex 37.938926 25.954915 2.000000
   vertex 37.269952 25.544967 2.000000
  endloop
 endfacet
 facet normal 0.649448 -0.760406 0.000000
  outer loop
   vertex 37.938926 25.954915 0.000000
   vertex 38.535534 26.464466 0.000000
   vertex 38.535534 26.464466 2.000000
  endloop
 endfacet
 facet normal 0.649448 -0.760406 0.000000
  outer loop
   vertex 37.938926 25.954915 0.000000
   vertex 38.535534 26.464466 2.000000
   vertex 37.938926 25.954915 2.000000
  endloop
 endfacet
 facet normal 0.760406 -0.649448 0.000000
  outer loop
   vertex 38.535534 26.464466 0.000000
   vertex 39.045085 27.061074 0.000000
   vertex 39.045085 27.061074 2.000000
  endloop
 endfacet
 facet normal 0.760406 -0.649448 0.000000
  outer loop
   vertex 38.535534 26.464466 0.000000
   vertex 39.045085 27.061074 2.000000
   vertex 38.535534 26.464466 2.000000
  endloop
 endfacet
 facet normal 0.852640 -0.522499 0.000000
  outer loop
   vertex 39.045085 27.061074 0.000000
   vertex 39.455033 27.730048 0.000000
   vertex 39.455033 27.730048 2.000000
  endloop
 endfacet
 facet normal 0.852640 -0.522499 0.000000
  outer loop
   vertex 39.045085 27.061074 0.000000
   vertex 39.455033 27.730048 2.000000
   vertex 39.045085 27.061074 2.000000
  endloop
 endfacet
 facet normal 0.923880 -0.382683 0.000000
  outer loop
   vertex 39.455033 27.730048 0.000000
   vertex 39.755283 28.454915 0.000000
   vertex 39.755283 28.454915 2.000000
  endloop
 endfacet
 facet normal 0.923880 -0.382683 0.000000
  outer loop
   vertex 39.455033 27.730048 0.000000
   vertex 39.755283 28.454915 2.000000
   vertex 39.455033 27.730048 2.000000
  endloop
 endfacet
 facet normal 0.972370 -0.233445 0.000000
  outer loop
   vertex 39.755283 28.454915 0.000000
   vertex 39.938442 29.217828 0.000000
   vertex 39.938442 29.217828 2.000000
  endloop
 endfacet
 facet normal 0.972370 -0.233445 0.000000
  outer loop
   vertex 39.755283 28.454915 0.000000
   vertex 39.938442 29.217828 2.000000
   vertex 39.755283 28.454915 2.000000
  endloop
 endfacet
 facet normal 0.996917 -0.078459 0.000000
  outer loop
   vertex 39.938442 29.217828 0.000000
   vertex 40.000000 30.000000 0.000000
   vertex 40.000000 30.000000 2.000000
  endloop
 endfacet
 facet normal 0.996917 -0.078459 0.000000
  outer loop
   vertex 39.938442 29.217828 0.000000
   vertex 40.000000 30.000000 2.000000
   vertex 39.938442 29.217828 2.000000
  endloop
 endfacet
 facet normal 0.000000 0.000000 1.000000
  outer loop
   vertex 35.000000 30.000000 2.000000
   vertex 40.000000 30.000000 2.000000
   vertex 39.938442 30.782172 2.000000
  endloop
 endfacet
 facet normal 0.000000 0.000000 1.000000
  outer loop
   vertex 35.000000 30.000000 2.000000
   vertex 39.938442 30.782172 2.000000
   vertex 39.755283 31.545085 2.000000
  endloop
 endfacet
 facet normal 0.000000 0.000000 1.000000
  outer loop
   vertex 35.000000 30.000000 2.000000
   vertex 39.755283 31.545085 2.000000
   vertex 39.455033 32.269952 2.000000
  endloop
 endfacet
 facet normal 0.000000 0.000000 1.000000
  outer loop
   vertex 35.000000 30.000000 2.000000
   vertex 39.455033 32.269952 2.000000
   vertex 39.045085 32.938926 2.000000
  endloop
 endfacet
 facet normal 0.000000 0.000000 1.000000
  outer loop
   vertex 35.000000 30.000000 2.000000
   vertex 39.045085 32.938926 2.000000
   vertex 38.535534 33.535534 2.000000
  endloop
 endfacet
 facet normal 0.000000 0.000000 1.000000
  outer loop
   vertex 35.000000 30.000000 2.000000
   vertex 38.535534 33.535534 2.000000
   vertex 37.938926 34.045085 2.000000
  endloop
 endfacet
 facet normal 0.000000 0.000000 1.000000
  outer loop
   vertex 35.000000 30.000000 2.000000
   vertex 37.938926 34.045085 2.000000
   vertex 37.269952 34.455033 2.000000
  endloop
 endfacet
 facet normal 0.000000 0.000000 1.000000
  outer loop
   vertex 35.000000 30.000000 2.000000
   vertex 37.269952 34.455033 2.000000
   vertex 36.545085 34.755283 2.000000
  endloop
 endfacet
 facet normal 0.000000 0.000000 1.000000
  outer loop
   vertex 35.000000 30.000000 2.000000
   vertex 36.545085 34.755283 2.000000
   vertex 35.782172 34.938442 2.000000
  endloop
 endfacet
 facet normal 0.000000 0.000000 1.000000
  outer loop
   vertex 35.000000 30.000000 2.000000
   vertex 35.782172 34.938442 2.000000
   vertex 35.000000 35.000000 2.000000
  endloop
 endfacet
 facet normal 0.000000 -0.000000 1.000000
  outer loop
   vertex 35.000000 30.000000 2.000000
   vertex 35.000000 35.000000 2.000000
   vertex 34.217828 34.938442 2.000000
  endloop
 endfacet
 facet normal 0.000000 0.000000 1.000000
  outer loop
   vertex 35.000000 30.000000 2.000000
   vertex 34.217828 34.938442 2.000000
   vertex 33.454915 34.755283 2.000000
  endloop
 endfacet
 facet normal 0.000000 0.000000 1.000000
  outer loop
   vertex 35.000000 30.000000 2.000000
   vertex 33.454915 34.755283 2.000000
   vertex 32.730048 34.455033 2.000000
  endloop
 endfacet
 facet normal 0.000000 0.000000 1.000000
  outer loop
   vertex 35.000000 30.000000 2.000000
   vertex 32.730048 34.455033 2.000000
   vertex 32.061074 34.045085 2.000000
  endloop
 endfacet
 facet normal 0.000000 0.000000 1.000000
  outer loop
   vertex 35.000000 30.000000 2.000000
   vertex 32.061074 34.045085 2.000000
   vertex 31.464466 33.535534 2.000000
  endloop
 endfacet
 facet normal 0.000000 0.000000 1.000000
  outer loop
   vertex 35.000000 30.000000 2.000000
   vertex 31.464466 33.535534 2.000000
   vertex 30.954915 32.938926 2.000000
  endloop
 endfacet
 facet normal 0.000000 0.000000 1.000000
  outer loop
   vertex 35.000000 30.000000 2.000000
   vertex 30.954915 32.938926 2.000000
   vertex 30.544967 32.269952 2.000000
  endloop
 endfacet
 facet normal 0.000000 0.000000 1.000000
  outer loop
   vertex 35.000000 30.000000 2.000000
   vertex 30.544967 32.269952 2.000000
   vertex 30.244717 31.545085 2.000000
  endloop
 endfacet
 facet normal 0.000000 0.000000 1.000000
  outer loop
   vertex 35.000000 30.000000 2.000000
   vertex 30.244717 31.545085 2.000000
   vertex 30.061558 30.782172 2.000000
  endloop
 endfacet
 facet normal 0.000000 0.000000 1.000000
  outer loop
   vertex 35.000000 30.000000 2.000000
   vertex 30.061558 30.782172 2.000000
   vertex 30.000000 30.000000 2.000000
  endloop
 endfacet
 facet normal 0.000000 0.000000 1.000000
  outer loop
   vertex 35.000000 30.000000 2.000000
   vertex 30.000000 30.000000 2.000000
   vertex 30.061558 29.217828 2.000000
  endloop
 endfacet
 facet normal 0.000000 0.000000 1.000000
  outer loop
   vertex 35.000000 30.000000 2.000000
   vertex 30.061558 29.217828 2.000000
   vertex 30.244717 28.454915 2.000000
  endloop
 endfacet
 facet normal 0.000000 0.000000 1.000000
  outer loop
   vertex 35.000000 30.000000 2.000000
   vertex 30.244717 28.454915 2.000000
   vertex 30.544967 27.730048 2.000000
  endloop
 endfacet
 facet normal 0.000000 0.000000 1.000000
  outer loop
   vertex 35.000000 30.000000 2.000000
   vertex 30.544967 27.730048 2.000000
   vertex 30.954915 27.061074 2.000000
  endloop
 endfacet
 facet normal 0.000000 0.000000 1.000000
  outer loop
   vertex 35.000000 30.000000 2.000000
   vertex 30.954915 27.061074 2.000000
   vertex 31.464466 26.464466 2.000000
  endloop
 endfacet
 facet normal 0.000000 0.000000 1.000000
  outer loop
   vertex 35.000000 30.000000 2.000000
   vertex 31.464466 26.464466 2.000000
   vertex 32.061074 25.954915 2.000000
  endloop
 endfacet
 facet normal 0.000000 0.000000 1.000000
  outer loop
   vertex 35.000000 30.000000 2.000000
   vertex 32.061074 25.954915 2.000000
   vertex 32.730048 25.544967 2.000000
  endloop
 endfacet
 facet normal 0.000000 0.000000 1.000000
  outer loop
   vertex 35.000000 30.000000 2.000000
   vertex 32.730048 25.544967 2.000000
   vertex 33.454915 25.244717 2.000000
  endloop
 endfacet
 facet normal 0.000000 0.000000 1.000000
  outer loop
   vertex 35.000000 30.000000 2.000000
   vertex 33.454915 25.244717 2.000000
   vertex 34.217828 25.061558 2.000000
  endloop
 endfacet
 facet normal 0.000000 0.000000 1.000000
  outer loop
   vertex 35.000000 30.000000 2.000000
   vertex 34.217828 25.061558 2.000000
   vertex 35.000000 25.000000 2.000000
  endloop
 endfacet
 facet normal 0.000000 0.000000 1.000000
  outer loop
   vertex 35.000000 30.000000 2.000000
   vertex 35.000000 25.000000 2.000000
   vertex 35.782172 25.061558 2.000000
  endloop
 endfacet
 facet normal 0.000000 0.000000 1.000000
  outer loop
   vertex 35.000000 30.000000 2.000000
   vertex 35.782172 25.061558 2.000000
   vertex 36.545085 25.244717 2.000000
  endloop
 endfacet
 facet normal 0.000000 0.000000 1.000000
  outer loop
   vertex 35.000000 30.000000 2.000000
   vertex 36.545085 25.244717 2.000000
   vertex 37.269952 25.544967 2.000000
  endloop
 endfacet
 facet normal 0.000000 0.000000 1.000000
  outer loop
   vertex 35.000000 30.000000 2.000000
   vertex 37.269952 25.544967 2.000000
   vertex 37.938926 25.954915 2.000000
  endloop
 endfacet
 facet normal 0.000000 0.000000 1.000000
  outer loop
   vertex 35.000000 30.000000 2.000000
   vertex 37.938926 25.954915 2.000000
   vertex 38.535534 26.464466 2.000000
  endloop
 endfacet
 facet normal 0.000000 0.000000 1.000000
  outer loop
   vertex 35.000000 30.000000 2.000000
   vertex 38.535534 26.464466 2.000000
   vertex 39.045085 27.061074 2.000000
  endloop
 endfacet
 facet normal 0.000000 0.000000 1.000000
  outer loop
   vertex 35.000000 30.000000 2.000000
   vertex 39.045085 27.061074 2.000000
   vertex 39.455033 27.730048 2.000000
  endloop
 endfacet
 facet normal 0.000000 0.000000 1.000000
  outer loop
   vertex 35.000000 30.000000 2.000000
   vertex 39.455033 27.730048 2.000000
   vertex 39.755283 28.454915 2.000000
  endloop
 endfacet
 facet normal 0.000000 0.000000 1.000000
  outer loop
   vertex 35.000000 30.000000 2.000000
   vertex 39.755283 28.454915 2.000000
   vertex 39.938442 29.217828 2.000000
  endloop
 endfacet
 facet normal -0.000000 0.000000 1.000000
  outer loop
   vertex 35.000000 30.000000 2.000000
   vertex 39.938442 29.217828 2.000000
   vertex 40.000000 30.000000 2.000000
  endloop
 endfacet
 facet normal 0.996917 0.078459 0.000000
  outer loop
   vertex 30.000000 12.500000 0.000000
   vertex 29.938442 13.282172 0.000000
   vertex 29.938442 13.282172 2.000000
  endloop
 endfacet
 facet normal 0.996917 0.078459 -0.000000
  outer loop
   vertex 30.000000 12.500000 0.000000
   vertex 29.938442 13.282172 2.000000
   vertex 30.000000 12.500000 2.000000
  endloop
 endfacet
 facet normal 0.972370 0.233445 0.000000
  outer loop
   vertex 29.938442 13.282172 0.000000
   vertex 29.755283 14.045085 0.000000
   vertex 29.755283 14.045085 2.000000
  endloop
 endfacet
 facet normal 0.972370 0.233445 -0.000000
  outer loop
   vertex 29.938442 13.282172 0.000000
   vertex 29.755283 14.045085 2.000000
   vertex 29.938442 13.282172 2.000000
  endloop
 endfacet
 facet normal 0.923880 0.382683 0.000000
  outer loop
   vertex 29.755283 14.045085 0.000000
   vertex 29.455033 14.769952 0.000000
   vertex 29.455033 14.769952 2.000000
  endloop
 endfacet
 facet normal 0.923880 0.382683 -0.000000
  outer loop
   vertex 29.755283 14.045085 0.000000
   vertex 29.455033 14.769952 2.000000
   vertex 29.755283 14.045085 2.000000
  endloop
 endfacet
 facet normal 0.852640 0.522499 0.000000
  outer loop
   vertex 29.455033 14.769952 0.000000
   vertex 29.045085 15.438926 0.000000
   vertex 29.045085 15.438926 2.000000
  endloop
 endfacet
 facet normal 0.852640 0.522499 -0.000000
  outer loop
   vertex 29.455033 14.769952 0.000000
   vertex 29.045085 15.438926 2.000000
   vertex 29.455033 14.769952 2.000000
  endloop
 endfacet
 facet normal 0.760406 0.649448 0.000000
  outer loop
   vertex 29.045085 15.438926 0.000000
   vertex 28.535534 16.035534 0.000000
   vertex 28.535534 16.035534 2.000000
  endloop
 endfacet
 facet normal 0.760406 0.649448 -0.000000
  outer loop
   vertex 29.045085 15.438926 0.000000
   vertex 28.535534 16.035534 2.000000
   vertex 29.045085 15.438926 2.000000
  endloop
 endfacet
 facet normal 0.649448 0.760406 0.000000
  outer loop
   vertex 28.535534 16.035534 0.000000
   vertex 27.938926 16.545085 0.000000
   vertex 27.938926 16.545085 2.000000
  endloop
 endfacet
 facet normal 0.649448 0.760406 -0.000000
  outer loop
   vertex 28.535534 16.035534 0.000000
   vertex 27.938926 16.545085 2.000000
   vertex 28.535534 16.035534 2.000000
  endloop
 endfacet
 facet normal 0.522499 0.852640 0.000000
  outer loop
   vertex 27.938926 16.545085 0.000000
   vertex 27.269952 16.955033 0.000000
   vertex 27.269952 16.955033 2.000000
  endloop
 endfacet
 facet normal 0.522499 0.852640 -0.000000
  outer loop
   vertex 27.938926 16.545085 0.000000
   vertex 27.269952 16.955033 2.000000
   vertex 27.938926 16.545085 2.000000
  endloop
 endfacet
 facet normal 0.382683 0.923880 0.000000
  outer loop
   vertex 27.269952 16.955033 0.000000
   vertex 26.545085 17.255283 0.000000
   vertex 26.545085 17.255283 2.000000
  endloop
 endfacet
 facet normal 0.382683 0.923880 -0.000000
  outer loop
   vertex 27.269952 16.955033 0.000000
   vertex 26.545085 17.255283 2.000000
   vertex 27.269952 16.955033 2.000000
  endloop
 endfacet
 facet normal 0.233445 0.972370 0.000000
  outer loop
   vertex 26.545085 17.255283 0.000000
   vertex 25.782172 17.438442 0.000000
   vertex 25.782172 17.438442 2.000000
  endloop
 endfacet
 facet normal 0.233445 0.972370 -0.000000
  outer loop
   vertex 26.545085 17.255283 0.000000
   vertex 25.782172 17.438442 2.000000
   vertex 26.545085 17.255283 2.000000
  endloop
 endfacet
 facet normal 0.078459 0.996917 0.000000
  outer loop
   vertex 25.782172 17.438442 0.000000
   vertex 25.000000 17.500000 0.000000
   vertex 25.000000 17.500000 2.000000
  endloop
 endfacet
 facet normal 0.078459 0.996917 -0.000000
  outer loop
   vertex 25.782172 17.438442 0.000000
   vertex 25.000000 17.500000 2.000000
   vertex 25.782172 17.438442 2.000000
  endloop
 endfacet
 facet normal -0.078459 0.996917 0.000000
  outer loop
   vertex 25.000000 17.500000 0.000000
   vertex 24.217828 17.438442 0.000000
   vertex 24.217828 17.438442 2.000000
  endloop
 endfacet
 facet normal -0.078459 0.996917 0.000000
  outer loop
   vertex 25.000000 17.500000 0.000000
   vertex 24.217828 17.438442 2.000000
   vertex 25.000000 17.500000 2.000000
  endloop
 endfacet
 facet normal -0.233445 0.972370 0.000000
  outer loop
   vertex 24.217828 17.438442 0.000000
   vertex 23.454915 17.255283 0.000000
   vertex 23.454915 17.255283 2.000000
  endloop
 endfacet
 facet normal -0.233445 0.972370 0.000000
  outer loop
   vertex 24.217828 17.438442 0.000000
   vertex 23.454915 17.255283 2.000000
   vertex 24.217828 17.438442 2.000000
  endloop
 endfacet
 facet normal -0.382683 0.923880 0.000000
  outer loop
   vertex 23.454915 17.255283 0.000000
   vertex 22.730048 16.955033 0.000000
   vertex 22.730048 16.955033 2.000000
  endloop
 endfacet
 facet normal -0.382683 0.923880 0.000000
  outer loop
   vertex 23.454915 17.255283 0.000000
   vertex 22.730048 16.955033 2.000000
   vertex 23.454915 17.255283 2.000000
  endloop
 endfacet
 facet normal -0.522499 0.852640 0.000000
  outer loop
   vertex 22.730048 16.955033 0.000000
   vertex 22.061074 16.545085 0.000000
   vertex 22.061074 16.545085 2.000000
  endloop
 endfacet
 facet normal -0.522499 0.852640 0.000000
  outer loop
   vertex 22.730048 16.955033 0.000000
   vertex 22.061074 16.545085 2.000000
   vertex 22.730048 16.955033 2.000000
  endloop
 endfacet
 facet normal -0.649448 0.760406 0.000000
  outer loop
   vertex 22.061074 16.545085 0.000000
   vertex 21.464466 16.035534 0.000000
   vertex 21.464466 16.035534 2.000000
  endloop
 endfacet
 facet normal -0.649448 0.760406 0.000000
  outer loop
   vertex 22.061074 16.545085 0.000000
   vertex 21.464466 16.035534 2.000000
   vertex 22.061074 16.545085 2.000000
  endloop
 endfacet
 facet normal -0.760406 0.649448 0.000000
  outer loop
   vertex 21.464466 16.035534 0.000000
   vertex 20.954915 15.438926 0.000000
   vertex 20.954915 15.438926 2.000000
  endloop
 endfacet
 facet normal -0.760406 0.649448 0.000000
  outer loop
   vertex 21.464466 16.035534 0.000000
   vertex 20.954915 15.438926 2.000000
   vertex 21.464466 16.035534 2.000000
  endloop
 endfacet
 facet normal -0.852640 0.522499 0.000000
  outer loop
   vertex 20.954915 15.438926 0.000000
   vertex 20.544967 14.769952 0.000000
   vertex 20.544967 14.769952 2.000000
  endloop
 endfacet
 facet normal -0.852640 0.522499 0.000000
  outer loop
   vertex 20.954915 15.438926 0.000000
   vertex 20.544967 14.769952 2.000000
   vertex 20.954915 15.438926 2.000000
  endloop
 endfacet
 facet normal -0.923880 0.382683 0.000000
  outer loop
   vertex 20.544967 14.769952 0.000000
   vertex 20.244717 14.045085 0.000000
   vertex 20.244717 14.045085 2.000000
  endloop
 endfacet
 facet normal -0.923880 0.382683 0.000000
  outer loop
   vertex 20.544967 14.769952 0.000000
   vertex 20.244717 14.045085 2.000000
   vertex 20.544967 14.769952 2.000000
  endloop
 endfacet
 facet normal -0.972370 0.233445 0.000000
  outer loop
   vertex 20.244717 14.045085 0.000000
   vertex 20.061558 13.282172 0.000000
   vertex 20.061558 13.282172 2.000000
  endloop
 endfacet
 facet normal -0.972370 0.233445 0.000000
  outer loop
   vertex 20.244717 14.045085 0.000000
   vertex 20.061558 13.282172 2.000000
   vertex 20.244717 14.045085 2.000000
  endloop
 endfacet
 facet normal -0.996917 0.078459 0.000000
  outer loop
   vertex 20.061558 13.282172 0.000000
   vertex 20.000000 12.500000 0.000000
   vertex 20.000000 12.500000 2.000000
  endloop
 endfacet
 facet normal -0.996917 0.078459 0.000000
  outer loop
   vertex 20.061558 13.282172 0.000000
   vertex 20.000000 12.500000 2.000000
   vertex 20.061558 13.282172 2.000000
  endloop
 endfacet
 facet normal -0.996917 -0.078459 0.000000
  outer loop
   vertex 20.000000 12.500000 0.000000
   vertex 20.061558 11.717828 0.000000
   vertex 20.061558 11.717828 2.000000
  endloop
 endfacet
 facet normal -0.996917 -0.078459 0.000000
  outer loop
   vertex 20.000000 12.500000 0.000000
   vertex 20.061558 11.717828 2.000000
   vertex 20.000000 12.500000 2.000000
  endloop
 endfacet
 facet normal -0.972370 -0.233445 0.000000
  outer loop
   vertex 20.061558 11.717828 0.000000
   vertex 20.244717 10.954915 0.000000
   vertex 20.244717 10.954915 2.000000
  endloop
 endfacet
 facet normal -0.972370 -0.233445 0.000000
  outer loop
   vertex 20.061558 11.717828 0.000000
   vertex 20.244717 10.954915 2.000000
   vertex 20.061558 11.717828 2.000000
  endloop
 endfacet
 facet normal -0.923880 -0.382683 0.000000
  outer loop
   vertex 20.244717 10.954915 0.000000
   vertex 20.544967 10.230048 0.000000
   vertex 20.544967 10.230048 2.000000
  endloop
 endfacet
 facet normal -0.923880 -0.382683 0.000000
  outer loop
   vertex 20.244717 10.954915 0.000000
   vertex 20.544967 10.230048 2.000000
   vertex 20.244717 10.954915 2.000000
  endloop
 endfacet
 facet normal -0.852640 -0.522499 0.000000
  outer loop
   vertex 20.544967 10.230048 0.000000
   vertex 20.954915 9.561074 0.000000
   vertex 20.954915 9.561074 2.000000
  endloop
 endfacet
 facet normal -0.852640 -0.522499 0.000000
  outer loop
   vertex 20.544967 10.230048 0.000000
   vertex 20.954915 9.561074 2.000000
   vertex 20.544967 10.230048 2.000000
  endloop
 endfacet
 facet normal -0.760406 -0.649448 0.000000
  outer loop
   vertex 20.954915 9.561074 0.000000
   vertex 21.464466 8.964466 0.000000
   vertex 21.464466 8.964466 2.000000
  endloop
 endfacet
 facet normal -0.760406 -0.649448 0.000000
  outer loop
   vertex 20.954915 9.561074 0.000000
   vertex 21.464466 8.964466 2.000000
   vertex 20.954915 9.561074 2.000000
  endloop
 endfacet
 facet normal -0.649448 -0.760406 0.000000
  outer loop
   vertex 21.464466 8.964466 0.000000
   vertex 22.061074 8.454915 0.000000
   vertex 22.061074 8.454915 2.000000
  endloop
 endfacet
 facet normal -0.649448 -0.760406 0.000000
  outer loop
   vertex 21.464466 8.964466 0.000000
   vertex 22.061074 8.454915 2.000000
   vertex 21.464466 8.964466 2.000000
  endloop
 endfacet
 facet normal -0.522499 -0.852640 0.000000
  outer loop
   vertex 22.061074 8.454915 0.000000
   vertex 22.730048 8.044967 0.000000
   vertex 22.730048 8.044967 2.000000
  endloop
 endfacet
 facet normal -0.522499 -0.852640 0.000000
  outer loop
   vertex 22.061074 8.454915 0.000000
   vertex 22.730048 8.044967 2.000000
   vertex 22.061074 8.454915 2.000000
  endloop
 endfacet
 facet normal -0.382683 -0.923880 0.000000
  outer loop
   vertex 22.730048 8.044967 0.000000
   vertex 23.454915 7.744717 0.000000
   vertex 23.454915 7.744717 2.000000
  endloop
 endfacet
 facet normal -0.382683 -0.923880 0.000000
  outer loop
   vertex 22.730048 8.044967 0.000000
   vertex 23.454915 7.744717 2.000000
   vertex 22.730048 8.044967 2.000000
  endloop
 endfacet
 facet normal -0.233445 -0.972370 0.000000
  outer loop
   vertex 23.454915 7.744717 0.000000
   vertex 24.217828 7.561558 0.000000
   vertex 24.217828 7.561558 2.000000
  endloop
 endfacet
 facet normal -0.233445 -0.972370 0.000000
  outer loop
   vertex 23.454915 7.744717 0.000000
   vertex 24.217828 7.561558 2.000000
   vertex 23.454915 7.744717 2.000000
  endloop
 endfacet
 facet normal -0.078459 -0.996917 0.000000
  outer loop
   vertex 24.217828 7.561558 0.000000
   vertex 25.000000 7.500000 0.000000
   vertex 25.000000 7.500000 2.000000
  endloop
 endfacet
 facet normal -0.078459 -0.996917 0.000000
  outer loop
   vertex 24.217828 7.561558 0.000000
   vertex 25.000000 7.500000 2.000000
   vertex 24.217828 7.561558 2.000000
  endloop
 endfacet
 facet normal 0.078459 -0.996917 0.000000
  outer loop
   vertex 25.000000 7.500000 0.000000
   vertex 25.782172 7.561558 0.000000
   vertex 25.782172 7.561558 2.000000
  endloop
 endfacet
 facet normal 0.078459 -0.996917 0.000000
  outer loop
   vertex 25.000000 7.500000 0.000000
   vertex 25.782172 7.561558 2.000000
   vertex 25.000000 7.500000 2.000000
  endloop
 endfacet
 facet normal 0.233445 -0.972370 0.000000
  outer loop
   vertex 25.782172 7.561558 0.000000
   vertex 26.545085 7.744717 0.000000
   vertex 26.545085 7.744717 2.000000
  endloop
 endfacet
 facet normal 0.233445 -0.972370 0.000000
  outer loop
   vertex 25.782172 7.561558 0.000000
   vertex 26.545085 7.744717 2.000000
   vertex 25.782172 7.561558 2.000000
  endloop
 endfacet
 facet normal 0.382683 -0.923880 0.000000
  outer loop
   vertex 26.545085 7.744717 0.000000
   vertex 27.269952 8.044967 0.000000
   vertex 27.269952 8.044967 2.000000
  endloop
 endfacet
 facet normal 0.382683 -0.923880 0.000000
  outer loop
   vertex 26.545085 7.744717 0.000000
   vertex 27.269952 8.044967 2.000000
   vertex 26.545085 7.744717 2.000000
  endloop
 endfacet
 facet normal 0.522499 -0.852640 0.000000
  outer loop
   vertex 27.269952 8.044967 0.000000
   vertex 27.938926 8.454915 0.000000
   vertex 27.938926 8.454915 2.000000
  endloop
 endfacet
 facet normal 0.522499 -0.852640 0.000000
  outer loop
   vertex 27.269952 8.044967 0.000000
   vertex 27.938926 8.454915 2.000000
   vertex 27.269952 8.044967 2.000000
  endloop
 endfacet
 facet normal 0.649448 -0.760406 0.000000
  outer loop
   vertex 27.938926 8.454915 0.000000
   vertex 28.535534 8.964466 0.000000
   vertex 28.535534 8.964466 2.000000
  endloop
 endfacet
 facet normal 0.649448 -0.760406 0.000000
  outer loop
   vertex 27.938926 8.454915 0.000000
   vertex 28.535534 8.964466 2.000000
   vertex 27.938926 8.454915 2.000000
  endloop
 endfacet
 facet normal 0.760406 -0.649448 0.000000
  outer loop
   vertex 28.535534 8.964466 0.000000
   vertex 29.045085 9.561074 0.000000
   vertex 29.045085 9.561074 2.000000
  endloop
 endfacet
 facet normal 0.760406 -0.649448 0.000000
  outer loop
   vertex 28.535534 8.964466 0.000000
   vertex 29.045085 9.561074 2.000000
   vertex 28.535534 8.964466 2.000000
  endloop
 endfacet
 facet normal 0.852640 -0.522499 0.000000
  outer loop
   vertex 29.045085 9.561074 0.000000
   vertex 29.455033 10.230048 0.000000
   vertex 29.455033 10.230048 2.000000
  endloop
 endfacet
 facet normal 0.852640 -0.522499 0.000000
  outer loop
   vertex 29.045085 9.561074 0.000000
   vertex 29.455033 10.230048 2.000000
   vertex 29.045085 9.561074 2.000000
  endloop
 endfacet
 facet normal 0.923880 -0.382683 0.000000
  outer loop
   vertex 29.455033 10.230048 0.000000
   vertex 29.755283 10.954915 0.000000
   vertex 29.755283 10.954915 2.000000
  endloop
 endfacet
 facet normal 0.923880 -0.382683 0.000000
  outer loop
   vertex 29.455033 10.230048 0.000000
   vertex 29.755283 10.954915 2.000000
   vertex 29.455033 10.230048 2.000000
  endloop
 endfacet
 facet normal 0.972370 -0.233445 0.000000
  outer loop
   vertex 29.755283 10.954915 0.000000
   vertex 29.938442 11.717828 0.000000
   vertex 29.938442 11.717828 2.000000
  endloop
 endfacet
 facet normal 0.972370 -0.233445 0.000000
  outer loop
   vertex 29.755283 10.954915 0.000000
   vertex 29.938442 11.717828 2.000000
   vertex 29.755283 10.954915 2.000000
  endloop
 endfacet
 facet normal 0.996917 -0.078459 0.000000
  outer loop
   vertex 29.938442 11.717828 0.000000
   vertex 30.000000 12.500000 0.000000
   vertex 30.000000 12.500000 2.000000
  endloop
 endfacet
 facet normal 0.996917 -0.078459 0.000000
  outer loop
   vertex 29.938442 11.717828 0.000000
   vertex 30.000000 12.500000 2.000000
   vertex 29.938442 11.717828 2.000000
  endloop
 endfacet
 facet normal 0.000000 0.000000 1.000000
  outer loop
   vertex 25.000000 12.500000 2.000000
   vertex 30.000000 12.500000 2.000000
   vertex 29.938442 13.282172 2.000000
  endloop
 endfacet
 facet normal 0.000000 0.000000 1.000000
  outer loop
   vertex 25.000000 12.500000 2.000000
   vertex 29.938442 13.282172 2.000000
   vertex 29.755283 14.045085 2.000000
  endloop
 endfacet
 facet normal 0.000000 0.000000 1.000000
  outer loop
   vertex 25.000000 12.500000 2.000000
   vertex 29.755283 14.045085 2.000000
   vertex 29.455033 14.769952 2.000000
  endloop
 endfacet
 facet normal 0.000000 0.000000 1.000000
  outer loop
   vertex 25.000000 12.500000 2.000000
   vertex 29.455033 14.769952 2.000000
   vertex 29.045085 15.438926 2.000000
  endloop
 endfacet
 facet normal 0.000000 0.000000 1.000000
  outer loop
   vertex 25.000000 12.500000 2.000000
   vertex 29.045085 15.438926 2.000000
   vertex 28.535534 16.035534 2.000000
  endloop
 endfacet
 facet normal 0.000000 0.000000 1.000000
  outer loop
   vertex 25.000000 12.500000 2.000000
   vertex 28.535534 16.035534 2.000000
   vertex 27.938926 16.545085 2.000000
  endloop
 endfacet
 facet normal 0.000000 0.000000 1.000000
  outer loop
   vertex 25.000000 12.500000 2.000000
   vertex 27.938926 16.545085 2.000000
   vertex 27.269952 16.955033 2.000000
  endloop
 endfacet
 facet normal 0.000000 0.000000 1.000000
  outer loop
   vertex 25.000000 12.500000 2.000000
   vertex 27.269952 16.955033 2.000000
   vertex 26.545085 17.255283 2.000000
  endloop
 endfacet
 facet normal 0.000000 0.000000 1.000000
  outer loop
   vertex 25.000000 12.500000 2.000000
   vertex 26.545085 17.255283 2.000000
   vertex 25.782172 17.438442 2.000000
  endloop
 endfacet
 facet normal 0.000000 0.000000 1.000000
  outer loop
   vertex 25.000000 12.500000 2.000000
   vertex 25.782172 17.438442 2.000000
   vertex 25.000000 17.500000 2.000000
  endloop
 endfacet
 facet normal 0.000000 -0.000000 1.000000
  outer loop
   vertex 25.000000 12.500000 2.000000
   vertex 25.000000 17.500000 2.000000
   vertex 24.217828 17.438442 2.000000
  endloop
 endfacet
 facet normal 0.000000 0.000000 1.000000
  outer loop
   vertex 25.000000 12.500000 2.000000
   vertex 24.217828 17.438442 2.000000
   vertex 23.454915 17.255283 2.000000
  endloop
 endfacet
 facet normal 0.000000 0.000000 1.000000
  outer loop
   vertex 25.000000 12.500000 2.000000
   vertex 23.454915 17.255283 2.000000
   vertex 22.730048 16.955033 2.000000
  endloop
 endfacet
 facet normal 0.000000 0.000000 1.000000
  outer loop
   vertex 25.000000 12.500000 2.000000
   vertex 22.730048 16.955033 2.000000
   vertex 22.061074 16.545085 2.000000
  endloop
 endfacet
 facet normal 0.000000 0.000000 1.000000
  outer loop
   vertex 25.000000 12.500000 2.000000
   vertex 22.061074 16.545085 2.000000
   vertex 21.464466 16.035534 2.000000
  endloop
 endfacet
 facet normal 0.000000 0.000000 1.000000
  outer loop
   vertex 25.000000 12.500000 2.000000
   vertex 21.464466 16.035534 2.000000
   vertex 20.954915 15.438926 2.000000
  endloop
 endfacet
 facet normal 0.000000 0.000000 1.000000
  outer loop
   vertex 25.000000 12.500000 2.000000
   vertex 20.954915 15.438926 2.000000
   vertex 20.544967 14.769952 2.000000
  endloop
 endfacet
 facet normal 0.000000 0.000000 1.000000
  outer loop
   vertex 25.000000 12.500000 2.000000
   vertex 20.544967 14.769952 2.000000
   vertex 20.244717 14.045085 2.000000
  endloop
 endfacet
 facet normal 0.000000 0.000000 1.000000
  outer loop
   vertex 25.000000 12.500000 2.000000
   vertex 20.244717 14.045085 2.000000
   vertex 20.061558 13.282172 2.000000
  endloop
 endfacet
 facet normal 0.000000 0.000000 1.000000
  outer loop
   vertex 25.000000 12.500000 2.000000
   vertex 20.061558 13.282172 2.000000
   vertex 20.000000 12.500000 2.000000
  endloop
 endfacet
 facet normal 0.000000 0.000000 1.000000
  outer loop
   vertex 25.000000 12.500000 2.000000
   vertex 20.000000 12.500000 2.000000
   vertex 20.061558 11.717828 2.000000
  endloop
 endfacet
 facet normal 0.000000 0.000000 1.000000
  outer loop
   vertex 25.000000 12.500000 2.000000
   vertex 20.061558 11.717828 2.000000
   vertex 20.244717 10.954915 2.000000
  endloop
 endfacet
 facet normal 0.000000 0.000000 1.000000
  outer loop
   vertex 25.000000 12.500000 2.000000
   vertex 20.244717 10.954915 2.000000
   vertex 20.544967 10.230048 2.000000
  endloop
 endfacet
 facet normal 0.000000 0.000000 1.000000
  outer loop
   vertex 25.000000 12.500000 2.000000
   vertex 20.544967 10.230048 2.000000
   vertex 20.954915 9.561074 2.000000
  endloop
 endfacet
 facet normal 0.000000 0.000000 1.000000
  outer loop
   vertex 25.000000 12.500000 2.000000
   vertex 20.954915 9.561074 2.000000
   vertex 21.464466 8.964466 2.000000
  endloop
 endfacet
 facet normal 0.000000 0.000000 1.000000
  outer loop
   vertex 25.000000 12.500000 2.000000
   vertex 21.464466 8.964466 2.000000
   vertex 22.061074 8.454915 2.000000
  endloop
 endfacet
 facet normal 0.000000 0.000000 1.000000
  outer loop
   vertex 25.000000 12.500000 2.000000
   vertex 22.061074 8.454915 2.000000
   vertex 22.730048 8.044967 2.000000
  endloop
 endfacet
 facet normal 0.000000 0.000000 1.000000
  outer loop
   vertex 25.000000 12.500000 2.000000
   vertex 22.730048 8.044967 2.000000
   vertex 23.454915 7.744717 2.000000
  endloop
 endfacet
 facet normal 0.000000 0.000000 1.000000
  outer loop
   vertex 25.000000 12.500000 2.000000
   vertex 23.454915 7.744717 2.000000
   vertex 24.217828 7.561558 2.000000
  endloop
 endfacet
 facet normal 0.000000 0.000000 1.000000
  outer loop
   vertex 25.000000 12.500000 2.000000
   vertex 24.217828 7.561558 2.000000
   vertex 25.000000 7.500000 2.000000
  endloop
 endfacet
 facet normal 0.000000 0.000000 1.000000
  outer loop
   vertex 25.000000 12.500000 2.000000
   vertex 25.000000 7.500000 2.000000
   vertex 25.782172 7.561558 2.000000
  endloop
 endfacet
 facet normal 0.000000 0.000000 1.000000
  outer loop
   vertex 25.000000 12.500000 2.000000
   vertex 25.782172 7.561558 2.000000
   vertex 26.545085 7.744717 2.000000
  endloop
 endfacet
 facet normal 0.000000 0.000000 1.000000
  outer loop
   vertex 25.000000 12.500000 2.000000
   vertex 26.545085 7.744717 2.000000
   vertex 27.269952 8.044967 2.000000
  endloop
 endfacet
 facet normal 0.000000 0.000000 1.000000
  outer loop
   vertex 25.000000 12.500000 2.000000
   vertex 27.269952 8.044967 2.000000
   vertex 27.938926 8.454915 2.000000
  endloop
 endfacet
 facet normal 0.000000 0.000000 1.000000
  outer loop
   vertex 25.000000 12.500000 2.000000
   vertex 27.938926 8.454915 2.000000
   vertex 28.535534 8.964466 2.000000
  endloop
 endfacet
 facet normal 0.000000 0.000000 1.000000
  outer loop
   vertex 25.000000 12.500000 2.000000
   vertex 28.535534 8.964466 2.000000
   vertex 29.045085 9.561074 2.000000
  endloop
 endfacet
 facet normal 0.000000 0.000000 1.000000
  outer loop
   vertex 25.000000 12.500000 2.000000
   vertex 29.045085 9.561074 2.000000
   vertex 29.455033 10.230048 2.000000
  endloop
 endfacet
 facet normal 0.000000 0.000000 1.000000
  outer loop
   vertex 25.000000 12.500000 2.000000
   vertex 29.455033 10.230048 2.000000
   vertex 29.755283 10.954915 2.000000
  endloop
 endfacet
 facet normal 0.000000 0.000000 1.000000
  outer loop
   vertex 25.000000 12.500000 2.000000
   vertex 29.755283 10.954915 2.000000
   vertex 29.938442 11.717828 2.000000
  endloop
 endfacet
 facet normal 0.000000 0.000000 1.000000
  outer loop
   vertex 25.000000 12.500000 2.000000
   vertex 29.938442 11.717828 2.000000
   vertex 30.000000 12.500000 2.000000
  endloop
 endfacet
endsolid environment